<?xml version="1.0" encoding="UTF-8" standalone="no"?>
<!-- Created with Inkscape (http://www.inkscape.org/) -->

<svg
   xmlns:dc="http://purl.org/dc/elements/1.1/"
   xmlns:cc="http://creativecommons.org/ns#"
   xmlns:rdf="http://www.w3.org/1999/02/22-rdf-syntax-ns#"
   xmlns:svg="http://www.w3.org/2000/svg"
   xmlns="http://www.w3.org/2000/svg"
   xmlns:sodipodi="http://sodipodi.sourceforge.net/DTD/sodipodi-0.dtd"
   xmlns:inkscape="http://www.inkscape.org/namespaces/inkscape"
   width="2206.7214"
   height="1442.0508"
   id="svg2"
   version="1.1"
   inkscape:version="0.48.1 "
   sodipodi:docname="Pre-cutout.svg">
  <defs
     id="defs4">
    <inkscape:perspective
       sodipodi:type="inkscape:persp3d"
       inkscape:vp_x="0 : 526.18109 : 1"
       inkscape:vp_y="0 : 1000 : 0"
       inkscape:vp_z="744.09448 : 526.18109 : 1"
       inkscape:persp3d-origin="372.04724 : 350.78739 : 1"
       id="perspective10" />
    <inkscape:perspective
       id="perspective2824"
       inkscape:persp3d-origin="0.5 : 0.33333333 : 1"
       inkscape:vp_z="1 : 0.5 : 1"
       inkscape:vp_y="0 : 1000 : 0"
       inkscape:vp_x="0 : 0.5 : 1"
       sodipodi:type="inkscape:persp3d" />
    <inkscape:perspective
       id="perspective2837"
       inkscape:persp3d-origin="0.5 : 0.33333333 : 1"
       inkscape:vp_z="1 : 0.5 : 1"
       inkscape:vp_y="0 : 1000 : 0"
       inkscape:vp_x="0 : 0.5 : 1"
       sodipodi:type="inkscape:persp3d" />
    <inkscape:perspective
       id="perspective2851"
       inkscape:persp3d-origin="0.5 : 0.33333333 : 1"
       inkscape:vp_z="1 : 0.5 : 1"
       inkscape:vp_y="0 : 1000 : 0"
       inkscape:vp_x="0 : 0.5 : 1"
       sodipodi:type="inkscape:persp3d" />
  </defs>
  <sodipodi:namedview
     id="base"
     pagecolor="#ffffff"
     bordercolor="#666666"
     borderopacity="1.0"
     inkscape:pageopacity="0.0"
     inkscape:pageshadow="2"
     inkscape:zoom="0.35111486"
     inkscape:cx="1327.5805"
     inkscape:cy="109.87938"
     inkscape:document-units="px"
     inkscape:current-layer="layer1"
     showgrid="false"
     inkscape:window-width="1280"
     inkscape:window-height="961"
     inkscape:window-x="-4"
     inkscape:window-y="-4"
     inkscape:window-maximized="1"
     fit-margin-top="2"
     fit-margin-right="2"
     fit-margin-bottom="2"
     fit-margin-left="2" />
  <metadata
     id="metadata7">
    <rdf:RDF>
      <cc:Work
         rdf:about="">
        <dc:format>image/svg+xml</dc:format>
        <dc:type
           rdf:resource="http://purl.org/dc/dcmitype/StillImage" />
        <dc:title />
      </cc:Work>
    </rdf:RDF>
  </metadata>
  <g
     inkscape:label="Layer 1"
     inkscape:groupmode="layer"
     id="layer1"
     transform="translate(54.346738,244.93108)">
    <path
       style="fill:none;stroke:#000000;stroke-width:0.76094371;stroke-linecap:butt;stroke-linejoin:miter;stroke-miterlimit:4;stroke-opacity:1;stroke-dasharray:none"
       d="m 1022.1335,308.30511 -22.77474,-0.8627 C 1070.6474,190.81576 976.4597,193.82204 964.05057,141.18903 952.80828,93.5047 943.54365,57.802004 925.1347,48.229359 910.08703,39.70948 914.59968,38.171744 854.54903,55.087576 c -10.20429,-5.222158 -19.72461,-15.679173 -21.57,-32.70472 8.04758,-14.9428203 45.25983,-28.5555167 47.77394,-61.364902 1.63539,-21.342515 -6.62726,-25.772498 -6.62726,-25.772498 0,0 26.72678,11.102727 31.11107,4.418143 2.62165,-3.997105 -11.04536,-24.667969 -11.04536,-24.667969 0,0 29.6384,2.945438 36.26558,11.781717 l 1.28867,-21.722531 c 9.75367,7.493278 17.59194,9.229103 24.48388,26.692942 8.35308,-0.123191 19.94265,-7.013889 26.32473,-11.045358 4.31991,8.324443 0.068,18.973375 -4.23401,30.006557 -0.60331,2.614229 35.95813,21.950531 196.60733,23.011158 103.4657,0.683093 224.2207,-28.349752 255.8841,-2.577248 54.5508,50.164416 5.0552,135.597093 19.8817,188.875603 25.8513,29.57364 9.9578,61.72614 5.5227,94.99007 -32.6435,-48.59744 -6.5262,-68.81132 -13.6227,-84.3129 -7.2849,-19.44453 -9.3152,-26.2849 -8.3112,-56.0277 1.1525,-33.545297 4.884,-88.161319 -1.9978,-89.034646 -12.7865,-1.622653 -39.3951,105.667246 -24.6679,138.435146 13.6506,30.37273 1.8409,67.74484 1.1045,79.52655 -0.7364,11.78172 -6.9954,43.44509 -6.9954,43.44509 l -19.5135,3.68178 c -10.1791,-15.58197 27.3747,-77.55476 4.4181,-84.68107 -14.0499,-4.36148 -34.9769,74.46492 -34.9769,86.15378 l -25.0361,1.47273 c 0,0 0.9204,-20.06574 14.7271,-41.60417 11.0199,-17.19102 8.5545,-50.32014 9.8488,-63.69491 1.3806,-14.17488 -11.5976,-22.64299 -11.5976,-22.64299 l -7.6397,2.85339 c -1.6305,3.69196 -1.8297,31.57495 -8.6522,31.93949 -6.9304,0.3703 -4.4186,-30.55537 -4.4182,-30.55882 -5.8908,-7.73674 -9.3885,-1.09999 -15.2794,-0.92044 0.037,0.009 0.6121,28.61009 -8.6522,30.92699 -6.4522,1.61365 -4.7838,-30.73793 -4.7863,-30.74291 -17.8402,-2.51024 -26.1371,-8.20159 -39.2056,-12.3024 0,0 -31.7424,14.54211 -78.1828,25.05148 -27.045,6.1202 -85.5998,-2.20318 -98.3508,-3.26577 -13.3779,41.29086 -13.1715,87.5581 -19.1587,132.54429 l -20.9231,-0.43136 c 0,0 7.0586,-24.08412 0.4314,-26.29319 -6.6272,-2.20907 -10.651,19.48731 -12.6444,23.77913 z"
       id="path2830"
       sodipodi:nodetypes="ccscccscsccccccsccccssssccsccssccsccsccscccsc"
       inkscape:connector-curvature="0" />
    <path
       sodipodi:nodetypes="ccczccczcscccccccccccscssccscccccccczcccccsc"
       id="path2825"
       d="m 1707.4583,269.29232 -21.4743,-1.72965 c 28.0585,-59.39702 20.8165,-87.1519 10.2105,-106.20318 -13.6402,-10.38176 -35.618,-5.71772 -53.3212,-38.80991 C 1625.17,89.4574 1612.8298,33.093899 1591.82,23.087779 c -15.0476,-8.519879 -29.934,-6.697104 -75.3538,7.725174 -21.0646,-8.795346 -17.3256,-13.846613 -15.5014,-27.5030181 10.5586,-15.5404049 47.2154,-50.7611829 48.6409,-66.1331279 1.4652,-15.801786 -10.5286,-19.270371 -10.5286,-19.270371 0,0 23.259,3.733649 27.6434,-2.950942 2.6215,-3.997105 -10.1785,-20.766684 -10.1785,-20.766684 0,0 24.4367,0.77805 31.0639,9.61434 5.9301,-6.14073 2.6489,-14.12374 3.456,-21.28906 9.7538,7.49327 16.2915,4.89435 24.9174,19.323861 8.3531,-0.123197 18.2087,-9.181271 24.5908,-13.212741 3.0195,5.72359 -2.0995,15.072099 -6.4014,24.804848 31.5035,14.719397 89.0063,28.359854 196.6074,12.174273 155.3117,15.501306 183.2565,-22.697534 272.3561,-0.409865 59.8208,44.637181 0.4468,141.12161 32.4525,209.682424 24.5509,51.68089 11.2582,59.99224 6.8231,93.25617 -20.7524,-53.76747 -9.2295,-55.66823 -16.2235,-75.64339 -7.2849,-19.44453 -18.6346,-57.585156 -16.1138,-87.237939 3.0813,-36.245557 2.5405,-74.7370231 -7.1994,-84.26642 -5.6007,33.869793 -16.6422,66.683335 -18.5994,98.555393 -2.0409,33.236706 17.0125,74.680466 16.2762,86.462176 -0.7363,11.78172 -10.0297,97.19606 -10.0297,97.19606 l -19.5134,1.08092 c 2.3916,-35.08838 16.5424,-74.90981 -1.2171,-78.61242 -10.5787,-2.2055 -29.3418,68.39626 -29.3418,80.08512 l -31.1048,-1.56161 c 0,0 15.6395,-35.29027 24.2636,-59.37665 5.1087,-45.07763 3.7419,-26.70054 0.7933,-40.52702 -1.7921,-16.73523 -8.3035,-26.86331 -15.817,-35.58841 -1.6304,3.69197 1.0386,34.76993 -9.9527,35.4073 -10.7366,-7.53501 -10.6385,-24.98913 -10.3675,-30.29471 -4.4973,1.19654 -0.5855,0.23692 -12.3643,-0.31761 -3.8644,3.04353 -0.7706,26.78093 -9.5192,27.4592 -8.7485,0.67826 -12.5423,-21.93129 -12.5889,-26.40816 -26.1612,-3.89709 -39.7904,-8.671 -47.4416,-11.86892 -54.3341,21.34623 -106.9305,18.37822 -161.7955,13.54967 -11.2696,28.81725 0.595,84.02759 -9.1887,129.94344 l -22.6569,3.03644 c 0,0 5.7582,-25.81803 0.4313,-26.29319 -6.958,-0.62068 -13.6853,22.08816 -15.6787,26.37999 z"
       style="fill:none;stroke:#000000;stroke-width:0.76094371;stroke-linecap:butt;stroke-linejoin:miter;stroke-miterlimit:4;stroke-opacity:1;stroke-dasharray:none"
       inkscape:connector-curvature="0" />
    <path
       style="fill:none;stroke:#000000;stroke-width:0.76094371;stroke-linecap:butt;stroke-linejoin:miter;stroke-miterlimit:4;stroke-opacity:1;stroke-dasharray:none"
       d="m 1628.2098,717.71908 -23.7745,-0.0378 c 24.3932,-28.05655 41.6322,-76.93534 29.205,-101.86664 -13.6403,-10.38176 -40.9867,-14.47495 -52.5407,-40.76122 -11.5541,-26.28629 -25.7505,-90.23621 -46.7603,-100.24233 -25.1508,-10.08028 -75.1075,5.32543 -80.4274,6.55435 -13.5736,3.13563 -19.0452,-16.57614 -12.7695,-28.67383 20.647,-19.42055 52.3756,-47.4022 51.3728,-61.84019 -1.0029,-14.43799 -8.9675,-20.05089 -8.9675,-20.05089 6.3769,-2.91601 28.8692,2.04945 31.1557,0.95171 4.0938,-5.87337 -9.7816,-19.14798 -12.9103,-21.54721 0,0 27.1685,0.77806 33.7958,9.61435 3.8879,-10.1824 -3.1416,-13.42795 -3.5688,-18.94748 4.0731,1.32376 17.5294,3.53377 32.7226,23.22652 8.9904,-1.07905 22.3238,-15.15866 27.3228,-17.11538 0.2419,10.24154 -3.1355,17.05039 -6.7917,21.68271 33.1861,16.67712 74.0002,22.47721 202.0711,18.02828 82.9074,9.85965 166.5331,3.29864 242.6959,5.83438 54.5181,6.97669 58.8141,44.24594 54.7063,90.4688 -4.1077,47.34894 -16.6191,102.3517 -0.399,120.77468 28.3133,39.94221 8.0372,55.53197 0.4939,91.13265 -17.8393,-52.519 -0.9285,-64.5749 -12.2358,-86.39864 -15.5872,-28.56248 -12.8995,-51.40631 -7.528,-79.04235 7.2944,-37.5287 5.6045,-78.69418 1.3864,-78.02217 -4.2181,0.67202 -30.0226,69.3249 -34.2099,104.79966 -4.5957,38.93401 15.3863,71.69675 13.154,89.19402 -1.4537,11.39507 -27.307,85.56943 -23.8559,86.71978 l -23.1929,-4.1617 c 6.9648,-30.999 32.3941,-87.85801 13.5568,-81.23602 -1.3119,0.46113 -36.604,68.13718 -44.2359,78.43909 l -26.3577,-3.81824 c 0,0 25.3962,-40.36372 34.0203,-64.4501 14.6072,-29.26767 10.4376,-39.81184 -10.3405,-64.40744 -1.6305,3.69196 -4.9427,33.0021 -13.0748,31.89487 -8.5154,-1.15942 -7.6037,-25.20714 -7.3327,-30.51275 -4.4972,1.19656 -9.5616,1.40773 -15.4864,0.8532 -3.8644,3.04352 -1.4639,30.90167 -9.0417,30.40911 -7.5777,-0.49254 -5.1272,-23.1021 -5.1738,-27.57896 -33.0971,-2.61174 -42.1654,-19.46253 -47.4853,-23.83857 -55.9031,36.88931 -120.8258,21.39875 -181.7118,13.36469 -8.928,28.03669 -9.2309,79.56546 -20.9711,130.69315 l -23.8278,-1.30013 c 0,0 9.228,-21.42307 7.1968,-23.04021 -3.5568,-2.83167 -17.8911,19.9624 -19.8845,24.25422 z"
       id="path2827"
       sodipodi:nodetypes="ccczcsczccccccccccccccszssccscccczcczcccccsc"
       inkscape:connector-curvature="0" />
    <path
       sodipodi:nodetypes="ccccccsccccccccccccccccszssccczcccczcczccccccsc"
       id="path2857"
       d="m 1528.8475,1169.1034 -22.1968,-1.6155 c 19.5526,-24.4195 35.4557,-63.8283 18.9494,-103.4445 -9.7899,-5.0396 -18.0799,-4.2335 -24.9293,-12.3609 -6.455,-13.2551 -14.4462,-17.2687 -24.2513,-34.4573 -8.4225,-25.12572 -16.3072,-90.05484 -51.6982,-99.70762 -25.1508,-14.41922 -50.2573,9.26992 -62.2827,7.34326 -13.7556,-2.20387 -23.3842,-13.42056 -17.1085,-25.51825 26.4069,-22.09336 60.5796,-55.72347 57.2895,-67.7569 0,-10.38742 -5.4001,-22.28031 -5.8119,-22.41758 6.3769,-2.91602 29.6582,9.54398 31.9446,8.44624 4.0939,-5.87337 -4.6537,-27.82586 -7.7825,-30.22509 1.8704,-3.16953 28.4859,7.899 31.8235,19.47557 3.888,-10.18239 -2.7471,-20.52803 -3.1743,-26.04756 4.0732,1.32376 15.5571,3.53377 27.5949,24.0154 13.0813,-1.22922 17.4431,-8.90245 26.1394,-16.32647 0.2419,10.24154 -0.3744,20.99489 -4.0306,25.62721 42.9751,4.40586 21.1485,22.40097 150.0038,18.4227 43.0047,0.82281 98.2751,3.89424 140.4137,8.2841 40.5978,0.86136 71.0892,1.09441 108.5934,2.67814 168.3213,18.86077 59.4494,96.70896 77.9743,218.73805 20.0299,37.181 3.6982,46.8541 -7.0006,85.6103 -20.6004,-26.0909 4.9882,-60.2359 -3.1636,-75.3541 -15.1927,-41.9737 -8.3784,-64.0431 -1.2167,-91.27022 15.5778,-59.22341 15.0713,-81.45532 8.4865,-81.17777 -6.58,0.27736 -41.0673,77.21387 -46.0435,115.84429 -5.0087,38.883 8.2411,49.4667 8.4207,67.1048 0.1241,12.184 -24.5459,97.0085 -21.0948,98.1588 l -28.7151,-1.4006 c 10.0555,-18.9289 25.4797,-54.3152 22.4126,-63.0825 -6.617,-13.8952 -5.6873,-16.5445 -9.6448,-16.9701 -4.3477,-0.4676 -38.5762,68.5316 -44.6303,81.2002 l -21.6243,-2.6349 c -1.6906,-2.3246 29.4849,-48.0543 37.1759,-73.9169 8.4829,-25.0532 -5.7646,-58.7255 -15.0739,-54.9406 -1.6305,3.6919 -0.9982,33.0021 -11.497,32.2893 -10.4988,-0.7127 -6.0258,-22.0516 -5.7549,-27.3572 -4.4972,1.1966 -7.1949,1.4078 -13.1197,0.8532 -3.8644,3.0435 -1.0695,30.1128 -10.6195,29.6203 -9.55,-0.4926 -8.6773,-20.3409 -8.7238,-24.8178 -31.5193,-5.3729 -32.3042,-16.7015 -37.6241,-21.0775 -26.3427,0.1759 -24.5431,16.1291 -72.6671,21.0633 -51.0735,-4.0545 -111.1688,-23.8497 -107.8614,-17.1654 -24.706,22.9089 -11.5976,74.0432 -23.3378,125.1709 l -21.4611,2.6444 c 0,0 3.7057,-22.6064 1.28,-24.2236 -3.7827,-2.5219 -12.3687,18.3846 -14.3621,22.6764 z"
       style="fill:none;stroke:#000000;stroke-width:0.76094371;stroke-linecap:butt;stroke-linejoin:miter;stroke-miterlimit:4;stroke-opacity:1;stroke-dasharray:none"
       inkscape:connector-curvature="0" />
    <path
       style="fill:none;stroke:#000000;stroke-width:0.76094371;stroke-linecap:butt;stroke-linejoin:miter;stroke-opacity:1"
       d="m 765.93757,460.32528 c 0,0 -29.56528,23.15014 -29.56528,29.56525 0,6.41511 12.8302,22.31341 16.73508,22.0345 3.9048,-0.27891 58.85158,-15.61939 69.72941,-9.76213 5.43885,2.92863 13.36734,-1.64252 40.41199,45.33569 8.91502,33.03233 18.53772,67.40893 22.34441,75.71453 9.2043,20.08206 42.5349,27.33394 45.74247,32.07553 3.20757,4.74159 9.2043,52.4365 2.23135,61.36186 -6.97296,8.92536 -23.56848,36.95658 -22.59233,38.49062 0.97622,1.53403 17.65997,2.53952 19.52425,1.3946 1.86428,-1.14494 16.8745,-9.4832 16.8745,-9.4832 0,0 -4.39096,10.23719 -3.48648,12.27236 0.90455,2.03517 27.05503,-1.81297 27.61285,-3.48646 6.41513,-60.80402 7.9715,-113.33369 19.36668,-116.6511 24.27933,-7.33352 50.25183,5.89293 100.94833,0.67917 55.4449,-5.14373 66.1352,-29.91285 74.7948,-31.07539 0,0 15.473,8.28583 23.8405,10.23827 8.3675,1.9524 19.5242,3.34701 19.5242,3.34701 0,0 4.7416,7.25184 4.1838,9.76209 -0.5579,2.51028 -2.8011,15.55762 2.5102,16.45614 12.3785,2.0941 16.1315,-27.86415 14.5038,-26.77608 5.7888,-0.87512 11.4381,-2.58777 17.5718,-1.39459 0,0 1.5027,1.73179 1.6409,7.87456 0.1383,6.14276 -5.17,16.35691 4.1924,16.07151 9.3625,-0.28541 11.7385,-28.12983 11.7385,-28.12983 0.8422,-0.42111 14.2027,15.49139 13.7008,32.03347 -0.5429,17.8892 -38.4234,90.39887 -40.198,94.87403 0,0 21.1977,1.39458 22.5923,0.55782 1.5412,-1.61832 51.188,-91.52012 49.9263,-84.79094 7.1989,14.11145 1.0125,35.95928 -20.361,82.28069 0.9324,-0.74588 33.0919,-4.00109 31.5177,-4.46268 0.3526,-7.96622 23.384,-78.41109 22.3134,-91.20606 -1.1157,-13.18261 -14.6945,-34.26886 -11.4356,-59.40943 3.4022,-26.24693 7.2518,-40.16413 17.5718,-75.02882 10.3199,-34.86469 16.1772,-49.36841 16.1772,-49.36841 0,0 5.9473,11.52751 7.6702,25.93933 2.4887,12.02288 -13.1965,64.52123 -10.1805,89.81145 -0.037,28.43674 7.5785,50.35664 8.6465,57.17812 -2.9455,13.43669 -10.6752,36.00253 1.3945,67.49804 4.6534,-2.74358 25.2533,-49.24029 13.667,-70.56614 -6.6848,-10.08326 -14.1657,-38.28883 -10.8778,-57.1781 3.1684,-43.05607 17.5957,-83.40366 11.0102,-111.98661 -4.7371,-32.68766 -8.6527,-51.05846 -84.226,-46.29911 -57.8801,5.42717 -37.7715,4.61844 -84.6515,11.854 -8.1655,3.14397 -174.2541,3.41215 -185.7591,3.90484 -11.9604,1.29867 -56.63937,-0.36772 -60.10675,-2.09189 -13.95106,-0.92523 -85.6246,-26.79397 -82.69904,-25.24202 3.45405,-7.56477 9.00243,-15.53231 8.01885,-22.24368 0,0 -9.97129,6.34536 -17.22315,7.46103 -7.25187,1.11567 -11.71449,0.83676 -11.71449,0.83676 0,0 -9.48322,-11.99347 -14.22483,-15.61939 -4.7416,-3.62592 -18.68751,-9.20427 -18.68751,-9.20427 2.53224,5.52128 4.75638,11.8871 6.41513,19.80315 0,0 -12.8302,-7.5308 -21.47662,-8.92536 -6.88953,-1.11118 -14.78264,2.51025 -14.78264,2.51025 -0.43764,-1.45868 11.32571,10.3256 12.5513,13.94587 0.97374,1.8236 0.13481,10.48522 -0.8368,9.48321 0,0 -32.91227,-7.25187 -36.25926,-4.18377 -3.34699,3.0681 11.15667,14.50371 7.80968,29.28634 -3.34699,14.78262 -25.6604,32.63337 -25.6604,32.63337 z"
       id="path3013"
       inkscape:connector-curvature="0"
       sodipodi:nodetypes="cssscszszzczccccscssccszcsccccccssccccccccccccccscsccscccszc" />
    <path
       style="fill:none;stroke:#000000;stroke-width:0.76094371;stroke-linecap:butt;stroke-linejoin:miter;stroke-opacity:1"
       d="m 676.82985,889.91341 c 13.82882,-9.27912 31.88946,-31.53338 31.55593,-39.83933 -0.63994,-15.93525 -13.60846,-23.66695 -10.45291,-24.0614 3.15562,-0.39444 25.44196,3.94448 27.01977,0.7889 6.68931,-11.69852 -11.83611,-21.00831 -10.25562,-23.66695 1.57774,-1.57779 16.96128,-4.33892 23.66687,0.7889 6.70566,5.12784 11.83351,12.62238 11.43909,9.46679 -0.39449,-3.1556 -7.49456,-20.90581 -7.49456,-20.90581 0,0 17.3557,7.10009 20.51132,12.22794 3.15562,5.12784 11.0446,13.41125 16.17245,13.8057 5.12785,0.39445 21.69465,-4.73337 21.69465,-4.73337 0,0 3.55004,6.90284 2.7612,10.84735 -0.78891,3.94448 -3.23485,10.1211 -1.9723,11.63622 1.9723,2.36669 38.21672,15.4239 86.38431,21.10303 31.59351,-0.58461 67.83697,0.86856 88.35661,3.35281 18.55407,2.24629 113.00964,-0.39444 153.44064,0.7889 6.7057,-0.7889 85.1858,-11.91003 119.1237,-7.69177 34.9087,4.33895 56.2089,18.14468 51.6727,63.50631 -4.3911,43.9117 -15.3834,85.20097 -16.3696,104.72617 -4.0362,59.5059 22.4029,51.5641 12.0307,87.9622 -7.889,19.7224 -16.5668,34.9087 -16.5668,34.9087 -6.7535,-20.9567 -6.4312,-38.1132 0.3944,-65.6758 -1.5778,-3.9444 -9.1978,-28.1244 -10.174,-45.9953 -0.9762,-17.8709 16.025,-100.31143 18.2264,-108.69635 2.3576,-8.9799 -4.4545,-30.16132 -8.8413,-26.36041 2.6641,0.53282 -44.7932,109.61846 -41.8116,140.02936 1.7663,18.0154 12.8733,46.5532 12.5069,59.0799 -0.3665,12.5266 -22.647,90.229 -22.647,90.229 0,0 -23.4079,1.1116 -24.0136,-2.6456 -0.6056,-3.7572 23.5411,-60.6624 22.7626,-62.9724 -0.7786,-2.31 -4.5701,-5.2871 -4.2235,-10.5107 0.3466,-5.2235 4.7532,-11.0883 2.5978,-11.6461 -3.4368,-0.8894 -7.3802,-0.7844 -9.8852,2.6695 -2.8437,3.9211 -20.5945,29.6018 -23.5473,36.2811 -5.5223,8.6779 -23.507,50.9873 -25.5516,52.2587 -0.4906,0.3051 -23.9571,-0.4537 -24.1011,-1.6933 -0.1875,-1.6155 46.6804,-79.4955 46.4014,-89.9105 2.155,-3.7423 -1.7456,-28.725 -5.1955,-35.7752 -1.0211,-1.0154 -8.1499,-0.7465 -9.6301,0.7609 -3.3623,3.4238 -2.8049,23.7825 -10.6023,24.7108 -7.0937,0.8446 -8.399,-3.295 -6.8212,-11.9729 1.5778,-8.6779 3.1994,-12.5027 0.2988,-12.8296 -2.7612,0.789 -14.5707,-1.4383 -16.1485,0.534 -1.5778,1.9723 -2.6696,18.3757 -6.2196,21.1369 -3.5501,2.7611 -10.0485,3.8966 -10.1162,-2.7892 -0.049,-4.8788 3.6114,-15.1591 1.7173,-16.1204 -11.6349,-7.3604 -29.9797,-7.0858 -46.9395,-14.5947 0,0 -28.0852,24.0053 -101.66876,25.2448 -54.61709,-0.4342 -57.52623,-12.4459 -71.49433,-9.8612 -9.03417,-3.2464 -21.95597,77.9687 -18.93359,123.8569 0,0 -24.7744,5.3808 -25.70685,1.9005 -1.00543,-3.7526 3.7425,-23.0997 0.068,-23.2008 -2.98926,-0.082 -11.83343,22.0892 -11.83343,22.0892 l -24.45585,-2.7612 c 0,0 14.01696,-18.0291 18.75032,-29.4681 4.73343,-11.439 6.88885,-44.6882 6.09994,-48.6328 -0.7889,-3.9444 -3.05694,-29.9781 -3.05694,-29.9781 0,0 -30.07679,-4.7333 -44.47415,-28.5975 -14.39736,-23.8642 -17.79225,-56.04313 -20.75643,-62.05806 -4.83465,-9.81049 -13.84593,-37.49953 -28.7469,-51.74049 -16.07913,-9.81643 -22.63877,-9.41892 -56.01177,-5.5223 -29.371,3.42934 -35.01028,9.63018 -43.06264,-8.21573 -8.05235,-17.84591 12.43656,-26.42382 24.12905,-35.56811 z"
       id="path3015"
       inkscape:connector-curvature="0"
       sodipodi:nodetypes="cssccssczsczscccsscccczscszczzzsscsscccscccsscccccssccssczscszc" />
    <path
       style="fill:none;stroke:#000000;stroke-width:0.76094371;stroke-linecap:butt;stroke-linejoin:miter;stroke-opacity:1"
       d="m 215.71898,-67.019864 c 1.76666,-10.53216 -4.91658,-18.4475 -2.94434,-19.236399 9.86649,-1.000076 22.92269,-4.964741 27.68222,4.086866 2.27626,-8.311558 -2.07723,-13.942159 -8.64643,-21.755573 0,0 11.99343,-3.62592 21.19774,1.39459 9.20427,5.020516 14.22477,8.925365 13.66695,7.809691 -0.83676,-11.017241 -8.84368,-15.552171 -9.20428,-17.432351 -0.84096,-4.38494 12.10956,-2.54496 22.45284,3.90485 10.34328,6.4498 9.92408,16.44131 14.08535,16.874517 4.05807,0.422467 14.67934,-3.127763 21.75556,-6.83348 0.55785,1.952418 0.35151,15.036292 -4.74159,19.384772 -4.15346,3.546218 22.61347,24.725023 51.1814,26.357708 32.36575,1.849731 38.63007,2.789175 44.20842,2.091879 3.90483,0 43.23223,3.90485 46.85815,4.183767 3.62592,0.278917 29.4258,0.557834 43.37169,1.812963 13.94587,1.255129 98.18068,8.819739 110.49849,9.262044 12.31782,0.442305 42.00485,1.231203 76.51571,-1.033973 24.45241,0.693186 42.72971,1.186979 66.99391,8.401361 24.51921,7.290201 45.64758,30.045489 42.22625,78.106124 -2.2831,32.071878 -16.09577,84.639968 -14.30653,97.223308 12.68673,54.39874 3.79281,50.75308 8.23805,62.57904 2.06321,5.48894 5.74916,14.43229 4.74161,25.93593 -1.00762,11.50362 -12.20896,36.58592 -12.22456,36.51599 0,0 -10.00139,-21.16631 -9.54506,-38.65402 0.45633,-17.48771 4.42305,-38.116 3.30734,-43.97327 -1.11564,-5.85727 -6.24218,-31.45621 -6.59248,-35.07594 -0.83673,-8.64644 12.13289,-96.087093 10.73834,-108.49893 -0.44595,-3.968514 -5.16,-27.612837 -6.83346,-25.939329 -1.67353,1.673501 -25.38157,76.144491 -27.05503,84.790939 -3.39866,17.55968 -0.83673,34.30686 -3.34699,44.62681 -2.51025,10.31995 -4.46269,20.08207 -3.62596,24.82367 0.83673,4.7416 10.31994,42.11654 10.59885,49.92623 0.27898,7.8097 -26.0788,73.4948 -29.14688,74.61047 -1.31058,0.47658 -22.17393,0.69728 -22.17393,0.69728 0,0 26.63662,-57.73594 26.0788,-64.98779 -0.25039,-3.25503 -3.06807,-16.59559 -5.71782,-16.59559 -2.17837,0 -19.80316,19.66368 -31.51765,40.86143 -11.71457,21.19773 -20.50046,38.07224 -20.50046,38.07224 0,0 -24.40529,-1.25512 -23.84747,-4.60213 0.55785,-3.34702 34.86471,-51.04193 38.76952,-66.66131 5.73088,-22.8051 10.5131,-21.21977 -1.46429,-56.34135 -1.18539,-0.76703 -10.25023,-2.51026 -11.08696,2.23134 -0.83676,4.7416 -2.3708,24.12637 -6.83348,26.63662 -4.46268,2.51026 -8.36754,-2.51025 -7.67024,-11.71454 -0.41839,-14.78262 0.13946,-18.54801 -3.0681,-20.22151 -4.60213,-0.90649 -9.83184,-0.55784 -11.71454,3.06809 -2.34544,4.51714 -1.10274,20.94651 -4.72674,24.64045 -3.62399,3.69394 -9.96019,3.43982 -11.3548,-1.85962 -1.39458,-5.29943 3.54775,-23.69545 0.62555,-24.78402 -8.5087,-3.16961 -21.57238,-2.25115 -28.07205,-5.49665 -6.35223,-3.17186 -9.18738,-7.00388 -9.18738,-7.00388 l -8.36752,-0.55783 c 0,0 -35.47174,13.03614 -50.53193,14.71496 -15.0602,1.67881 -34.50665,-1.27239 -62.26631,-5.66005 -27.75965,-4.38766 -37.36913,-9.2183 -42.98423,-7.3814 -3.84005,0.65353 -5.87081,6.71914 -17.09567,10.64382 -0.27891,1.95241 -7.33646,10.92854 -14.86724,63.08612 -7.53078,52.1576 -8.17028,53.30708 -8.17028,53.30708 0,0 -18.85088,3.05118 -18.85088,0.26202 0,-2.78919 3.4906,-10.66074 1.62276,-10.36781 -3.69686,0.57982 -15.61938,8.76197 -15.61938,8.76197 l -22.90507,-2.88778 c 0,0 21.56124,-32.99397 23.79258,-39.13016 2.23135,-6.13618 3.29915,-33.70117 3.57806,-37.88493 0.27891,-4.18376 3.3272,-26.51699 0.2591,-28.74833 -3.0681,-2.23134 -11.11366,2.59535 -30.82451,-17.48431 -19.71083,-20.07966 -26.021,-53.9302 -33.98828,-69.692153 -14.47569,-39.034444 -28.74574,-64.537529 -39.75325,-69.146923 -11.00753,-4.609401 -63.76483,3.85699 -70.17991,1.904565 -6.41511,-1.952417 -18.33679,-18.9564778 -16.38436,-22.0245769 19.57553,-15.9309061 51.66995,-44.7084311 54.89308,-63.9235961 z"
       id="path3028"
       inkscape:connector-curvature="0"
       sodipodi:nodetypes="scccscszscsscszzcsscszczssssssszscssscsccszccszzsscczzccscssccssszczscs" />
    <path
       style="fill:none;stroke:#000000;stroke-width:0.76094371;stroke-linecap:butt;stroke-linejoin:miter;stroke-opacity:1"
       d="m 91.467551,424.4636 c 0,0 21.694679,-21.30026 21.300239,-33.92261 -0.39445,-12.62239 -9.46677,-18.5391 -9.46677,-18.5391 0,0 14.59462,-1.18335 18.53909,1.97224 3.94451,3.15558 7.10009,4.73337 7.10009,4.73337 0,0 2.36671,-6.31117 -0.39445,-11.83346 -2.76113,-5.5223 -8.67787,-9.86122 -8.67787,-9.86122 0,0 13.80572,-2.36669 21.30025,1.18334 7.49454,3.55006 13.8057,10.25567 13.8057,10.25567 0,0 2.36672,-8.67788 -2.76113,-15.77797 -5.12785,-7.10006 -7.88898,-10.65011 -7.88898,-10.65011 0,0 18.14465,-0.39445 23.2725,6.70564 5.12782,7.10008 14.20014,20.11689 17.35575,21.6947 3.15559,1.5778 22.87803,-8.67787 22.87803,-8.67787 0,0 0.78889,8.2834 -0.39445,11.04456 -1.18334,2.76114 -5.52227,6.70564 -5.52227,6.70564 0,0 45.15848,15.81122 49.50335,16.56684 18.14465,3.15558 53.84227,7.889 130.75983,17.7502 71.00084,14.2002 101.18494,15.92571 115.77081,16.56686 17.94742,0.7889 125.34787,-9.55984 156.42326,4.84237 31.07543,14.4022 48.78495,35.4704 45.87202,79.99567 -2.91292,44.52531 -11.91177,47.25261 -11.71456,87.5637 0.15289,31.23839 4.89099,51.112 8.79587,57.80603 13.19061,14.47168 3.33166,54.92953 -12.86408,66.60763 -4.70168,-1.06083 -10.66654,-37.73989 -1.74114,-67.33467 0,0 -6.69851,-20.23356 -6.52487,-38.96437 0.17364,-18.73081 9.30579,-77.23006 9.97335,-86.93718 0.69813,-10.15096 -3.20991,-44.46458 -8.36751,-45.18464 -2.61099,-0.36452 -35.24136,82.60196 -36.81712,108.22002 -1.80886,29.40768 3.90476,50.79297 6.69403,68.61371 3.2583,1.27841 -16.182,85.99823 -23.26571,93.64863 0,0 -25.16443,2.23135 -24.04876,0 1.11567,-2.23134 17.19136,-50.69531 18.30704,-55.15799 1.11567,-4.46269 1.31288,-24.1503 -3.90486,-22.87125 -5.21774,1.27904 -31.96,35.59993 -38.09617,51.21932 -6.13619,15.61938 -9.31981,22.97276 -9.31981,22.97276 l -25.66042,-2.23134 c 8.69209,-12.07232 21.49023,-36.8853 24.74777,-42.33941 3.3358,-5.58508 23.78388,-42.45153 22.66821,-46.35639 -1.40374,-17.91054 -7.04479,-22.49581 -17.98026,-37.85109 l -4.89097,1.03397 c 0,0 -3.90486,31.79662 -9.76212,30.95986 -5.85726,-0.83676 -3.62592,-25.66042 -3.62592,-25.66042 0,0 -7.80969,3.90486 -10.59888,3.62593 -2.78916,-0.27892 -3.06808,0 -3.06808,0 0,0 -4.74161,28.17069 -11.1567,26.49717 -6.41511,-1.67349 -3.62595,-25.66042 -3.62595,-25.66042 0,0 -16.00802,0.32678 -23.98689,-2.51025 -7.97888,-2.83703 -19.11577,-13.38804 -19.11577,-13.38804 0,0 -23.95548,14.17113 -56.78944,16.89842 -32.83398,2.7273 -119.25243,-22.41836 -123.24193,-20.80329 -3.9895,1.61509 -17.32093,47.64125 -21.78361,69.39683 -4.46268,21.75556 -10.95942,50.7499 -12.21049,52.70141 -1.25109,1.95152 -20.39484,-0.21123 -20.11592,-2.16366 0.27893,-1.95243 3.0681,-20.42865 3.0681,-20.42865 0,0 -12.97959,17.72116 -16.60552,17.16331 -3.62592,-0.55782 -25.52505,-4.61203 -23.01479,-6.28554 2.51028,-1.6735 24.40359,-30.23281 29.30037,-36.47052 4.29991,-22.85568 10.91456,-56.65329 4.04842,-63.97365 -2.94671,-3.06031 -24.67432,-6.83756 -34.89855,-23.36719 -7.77769,-12.57426 -26.21246,-81.18724 -33.57984,-91.72425 -6.24134,-8.92653 -10.5428,-32.57149 -32.57729,-37.31308 -22.0345,-4.74159 -58.752518,6.87724 -70.343292,5.7954 -7.410244,-0.69165 -20.639912,-18.40855 -15.898295,-25.66042 4.741594,-7.25184 34.817358,-30.84115 34.817358,-30.84115 z"
       id="path3041"
       inkscape:connector-curvature="0"
       sodipodi:nodetypes="cscscscscscsscscscszzsccczsssccsszsccscccscscsczczzszccssccsssssc" />
    <path
       style="fill:none;stroke:#000000;stroke-width:0.76094371;stroke-linecap:butt;stroke-linejoin:miter;stroke-opacity:1"
       d="m 40.211628,751.88393 c 0.427219,5.51953 7.462778,8.76985 3.574863,18.95224 -6.627211,-8.83628 -33.7985832,-9.61485 -33.7985832,-9.61485 3.1287472,2.39925 17.0060782,15.67085 12.9122512,21.54424 -2.286484,1.09774 -24.7821863,-3.86719 -31.1590468,-0.95118 0,0 7.96200783,5.61602 8.96485514,20.05401 1.00287346,14.43802 -30.72457334,42.42199 -51.37161434,61.84256 -0.68216,1.68607 -0.469248,3.37641 0.507296,5.04125 -1.454544,3.66121 -2.239051,8.07453 -1.561507,13.26893 2.366713,18.14471 21.117583,15.73682 38.078891,12.97569 16.9612835,-2.76113 35.487016,-0.92488 51.855118,3.98702 12.825402,3.84883 22.733269,30.33365 26.823269,41.41596 8.580044,23.24863 13.756308,54.95933 28.00432,80.9533 14.24801,25.994 41.41741,35.0166 43.38964,37.7777 1.97225,2.7612 4.02618,17.7352 4.74005,43.7859 0.62553,22.8261 -30.07312,57.1739 -30.07312,57.1739 l 28.14699,4.7956 c 0,0 14.15313,-39.0921 20.0699,-37.1199 5.91671,1.9723 -9.07585,39.4423 -9.07585,39.4423 l 21.69483,3.9474 c 0,0 0.11716,-18.5529 0.3963,-22.4875 0.41836,-5.8969 7.78321,-29.2921 8.83806,-34.6863 5.08092,-25.9824 10.18145,-62.3471 19.16627,-65.893 8.98481,-3.5459 21.84199,5.7786 48.16933,10.2093 26.87034,4.5222 60.59985,6.7964 83.62451,4.2169 23.02467,-2.5795 37.42913,-10.2868 44.13474,-13.2452 6.70564,-2.9584 7.88688,-0.9829 7.88688,-0.9829 0,0 6.0511,4.7919 14.79084,8.4814 8.73974,3.6895 23.70023,5.1602 23.70023,5.1602 0,0 -1.19545,20.0416 0.7768,25.761 1.97223,5.7196 10.28022,3.2167 12.9836,0.8719 2.70338,-2.3447 5.81011,-28.6859 5.81011,-28.6859 l 13.80798,-0.9908 c 0,0 -3.93413,18.551 -2.32247,24.7227 1.61162,6.1718 10.89633,6.0422 14.0061,1.9183 3.1098,-4.124 5.19979,-31.9201 5.19979,-31.9201 l 5.71501,-1.3792 c 0,0 14.98359,20.5866 14.5372,47.2102 -0.4464,26.6236 -35.24309,85.9149 -35.63754,87.4927 -0.39444,1.5778 28.63051,1.5853 28.63051,1.5853 0.30484,-5.1825 35.72619,-85.7479 42.36712,-84.9958 2.85343,0.3231 6.36267,6.9425 7.54602,18.3815 1.18337,11.439 -16.66659,59.2865 -16.45541,66.1942 0.0489,1.5954 22.01984,1.2762 22.01984,1.2762 0,0 19.0049,-72.7617 21.04483,-91.2975 2.03992,-18.5356 -14.66513,-44.4964 -13.71283,-68.8416 0.95226,-24.345 26.49932,-111.31132 30.04936,-112.88911 3.55005,-1.57782 10.64715,24.85244 11.04159,28.79695 0.39445,3.94448 -13.47988,69.90756 -13.31651,88.57866 0.1634,18.671 14.8995,49.4763 16.08285,52.6319 3.04063,5.3516 -12.84169,7.5849 5.26319,70.2288 13.60448,-24.5055 20.8234,-63.6966 7.14972,-75.1433 -4.71632,-8.7444 -15.39049,-40.4651 -15.17925,-51.5856 0.21124,-11.1205 20.31322,-59.16076 15.55179,-114.31594 -4.7614,-55.15515 -49.07912,-55.20532 -70.37935,-57.96645 -21.30024,-2.76116 -91.61996,2.533 -117.51827,1.69626 -25.89826,-0.83676 -67.21261,-8.86699 -89.69624,-11.62815 -22.48356,-2.76114 -51.14691,-4.66414 -68.89711,-7.03082 -17.75018,-2.36671 -69.03264,-11.03891 -80.8661,-13.80002 -11.83348,-2.76116 -35.50153,-7.89479 -40.23489,-7.89479 -49.983255,-15.02073 -37.41472,-29.90691 -37.74601,-60.91514 -4.998944,1.95671 -18.332249,16.04219 -27.322626,17.12123 C 57.746841,755.42374 44.284782,753.20767 40.211628,751.88393 z"
       id="path3047"
       inkscape:connector-curvature="0"
       sodipodi:nodetypes="cccccsccsssssssccsccsssssscscssccssccssccsccssssscccssssssscccc" />
    <path
       style="fill:none;stroke:#000000;stroke-width:0.76094371;stroke-linecap:butt;stroke-linejoin:miter;stroke-opacity:1"
       d="m 1627.1677,-132.52291 c -2.3562,-0.045 -5.157,0.50419 -7.4668,2.9883 -3.6956,3.97457 -4.287,9.50694 -0.6976,12.22265 9.2103,3.99768 13.2453,-2.75842 13.2453,-2.75842 0,0 3.5603,-8.28796 -1.5299,-12.02449 -0.8886,-0.15831 -2.1373,-0.40101 -3.551,-0.42804 z m -0.4043,5.12845 c 1.2813,-0.0223 2.3273,0.46709 1.9579,1.60115 -0.1123,4.20914 -5.6362,4.8657 -5.4931,0.26158 0.3321,-1.1528 2.0832,-1.83739 3.5352,-1.86273 z"
       id="path3071"
       inkscape:connector-curvature="0" />
    <path
       style="fill:none;stroke:#000000;stroke-width:0.76094371;stroke-linecap:butt;stroke-linejoin:miter;stroke-opacity:1"
       d="m 1647.4357,-140.26709 c -0.9899,0.004 -2.1009,0.23133 -3.3212,0.72131 -8.4117,3.37741 -10.0547,10.49601 -8.3783,12.02449 1.6764,1.5285 4.7974,3.84841 9.6148,3.45596 5.8641,-0.47771 7.9744,-5.45662 8.2832,-8.63196 0.2004,-3.56545 -1.9089,-7.58889 -6.1985,-7.5698 z m -0.7292,4.88272 c 0.1441,-0.01 0.286,0.0192 0.4201,0.0793 1.4299,0.64099 -0.4451,5.66745 -1.4347,5.66745 -0.2465,0 -2.7055,-0.79116 -2.4096,-1.72797 0.268,-0.849 2.0311,-3.92649 3.4242,-4.01874 z"
       id="path3088"
       inkscape:connector-curvature="0" />
    <path
       style="fill:none;stroke:#000000;stroke-width:0.76094371;stroke-linecap:butt;stroke-linejoin:miter;stroke-opacity:1"
       d="m 1667.5452,-152.71169 c -2.2294,0.1086 -12.4417,1.84977 -11.7946,11.83426 0.6903,10.65013 7.4988,11.33975 11.7392,9.86056 4.2402,-1.47918 7.5954,-5.72448 7.9898,-11.04953 0.3967,-5.35495 -1.752,-10.21683 -7.5935,-10.64529 -0.072,-0.005 -0.1922,-0.007 -0.3409,0 z m -1.3316,3.71752 c 0.095,-0.001 0.1889,0.001 0.2853,0.0238 4.339,0.49306 4.0925,11.63865 0,11.34281 -5.2288,-0.35422 -3.2214,-11.32879 -0.2853,-11.36659 z"
       id="path3105"
       inkscape:connector-curvature="0" />
    <path
       style="fill:none;stroke:#000000;stroke-width:0.76094371;stroke-linecap:butt;stroke-linejoin:miter;stroke-opacity:1"
       d="m 1800.1634,-242.55061 c -4.9759,0 -30.4046,5.86333 -54.3916,27.06106 -22.1679,19.59025 -35.6969,42.66881 -37.9282,44.0634 -2.2314,1.39459 -8.544,7.08917 -16.5981,9.90812 -8.3676,2.92863 -16.8746,3.75947 -14.0854,15.19509 2.7892,11.43563 13.1103,14.78143 17.573,15.06035 22.4119,14.12097 29.379,39.626979 47.2737,42.398832 17.9901,1.952425 34.7259,-6.412538 34.7259,-6.412538 0,0 27.5506,-13.542734 48.2566,-35.986294 19.9425,-21.61611 21.1935,-30.12104 20.0778,-40.44099 -0.5579,-5.15997 -4.5186,-17.49774 -9.4327,-27.97984 -4.8808,-10.41126 -6.048,-20.68628 -11.2079,-27.10138 -10.32,-12.83021 -17.9873,-15.76581 -24.2631,-15.76581 z m -4.1455,6.49181 c 3.3766,-0.039 6.1624,0.75716 9.4484,1.32372 8.0886,1.39459 16.177,14.77892 17.8505,17.01026 1.6735,2.23134 3.9195,15.62565 8.9252,25.65807 4.1511,8.31979 6.6284,13.58678 6.9674,24.54837 0.4183,13.52749 -17.5992,33.91003 -39.6008,51.73624 -27.979,22.66931 -50.0596,21.603405 -57.4592,19.245533 -7.3995,-2.357871 -3.0678,-4.876093 -17.8504,-17.985223 -14.7827,-13.10912 -18.1293,-19.245 -22.3132,-22.31309 -4.1837,-3.06809 -6.6962,-2.23229 -11.4379,-2.79012 -4.7415,-0.55784 -6.8341,-8.08944 -6.5552,-11.71537 0.2789,-3.62593 18.5534,-5.29728 24.9685,-12.27021 6.4151,-6.97294 12.2676,-13.66903 23.1453,-29.28841 10.8779,-15.61938 23.4276,-22.59134 41.8361,-34.30588 10.9301,-6.95551 17.1402,-8.79681 22.0753,-8.85389 z"
       id="path3113"
       inkscape:connector-curvature="0"
       sodipodi:nodetypes="ssssscccssssssssssssssssssss" />
    <path
       style="fill:none;stroke:#000000;stroke-width:0.76094371;stroke-linecap:butt;stroke-linejoin:miter;stroke-opacity:1"
       d="m 1714.8151,-138.92912 c 0,0 -5.5784,-21.75557 -3.347,-22.45287 2.2313,-0.69729 16.1772,10.73833 16.1772,7.67024 0,-3.06809 -7.0852,-17.76477 -0.9663,-20.1976 5.5151,-2.19271 9.4079,13.60242 10.6748,17.16165 3.4464,9.68225 5.632,18.0975 2.7033,19.21317 -2.9286,1.11567 -19.6636,-11.43562 -20.7793,-10.73833 -1.1157,0.69729 6.9729,21.3372 1.2551,21.47665 -5.7178,0.13946 -5.7178,-12.13291 -5.7178,-12.13291 z"
       id="path3127"
       inkscape:connector-curvature="0"
       sodipodi:nodetypes="csssssssc" />
    <path
       style="fill:none;stroke:#000000;stroke-width:0.76094371;stroke-linecap:butt;stroke-linejoin:miter;stroke-opacity:1"
       d="m 1745.2889,-149.63651 c 0,0 -1.2861,-8.77309 -3.3779,-15.04874 -2.0919,-6.27564 -6.5208,-19.78913 -2.4765,-20.06805 4.0443,-0.27891 4.5444,0.96221 5.9461,7.71108 1.7263,8.31246 5.5458,17.35923 6.0754,19.24362 2.1287,7.57332 1.9793,14.10395 -1.2283,14.66178 -3.2075,0.55785 -4.9388,-6.49969 -4.9388,-6.49969 z"
       id="path3131"
       inkscape:connector-curvature="0"
       sodipodi:nodetypes="csssssc" />
    <path
       style="fill:none;stroke:#000000;stroke-width:0.76094371;stroke-linecap:butt;stroke-linejoin:miter;stroke-opacity:1"
       d="m 1757.2106,-155.38526 c 0,0 -2.6497,-7.11239 -4.7416,-12.55128 -2.0919,-5.4389 -9.1296,-21.05828 -3.1329,-22.31341 5.9968,-1.25513 15.0686,8.46904 15.5447,5.15997 0.2221,-1.5433 -8.5887,-15.75183 -3.9865,-16.8675 4.6021,-1.11567 5.939,0.55083 14.446,17.28588 8.5069,16.73506 7.1558,17.83438 5.4458,18.74524 -2.7582,1.46927 -21.0653,-11.7723 -21.3442,-10.23825 -0.2789,1.53404 6.9461,20.17367 2.7624,22.40501 -4.1838,2.23134 -4.9937,-1.62566 -4.9937,-1.62566 z"
       id="path3133"
       inkscape:connector-curvature="0"
       sodipodi:nodetypes="cssssssssc" />
    <path
       style="fill:none;stroke:#000000;stroke-width:0.76094371;stroke-linecap:butt;stroke-linejoin:miter;stroke-opacity:1"
       d="m 1796.538,-226.23032 c 0,0 -4.8431,-2.9905 -14.9221,4.60214 -12.2655,9.23978 -7.5308,9.34374 -6.8335,12.27237 0.6973,2.92864 9.5693,25.89245 10.4594,29.70472 0.8043,3.44512 0.082,8.87574 5.16,5.99673 8.9718,-5.08703 19.212,-18.73326 14.9291,-21.13996 -6.0166,-3.38085 -14.4629,9.5818 -15.0208,7.07154 -0.5578,-2.51026 -1.8607,-5.03743 0.3706,-7.26877 2.2314,-2.23134 9.1312,-9.09642 6.0925,-12.18368 -3.5643,-3.6211 -8.3238,3.95561 -10.9736,2.83994 -2.6497,-1.11567 -4.1837,-4.88106 -2.5102,-6.4151 1.6735,-1.53405 15.1432,-12.16676 13.2486,-15.47993 z"
       id="path3135"
       inkscape:connector-curvature="0"
       sodipodi:nodetypes="cssssssssssc" />
    <path
       style="fill:none;stroke:#000000;stroke-width:0.76094371;stroke-linecap:butt;stroke-linejoin:miter;stroke-opacity:1"
       d="m 1751.0744,-132.65348 c 0,0 1.9524,3.90485 5.7178,2.09188 3.7654,-1.81296 3.2076,-9.76211 2.3708,-11.29615 -0.8367,-1.53405 -2.5039,-3.90802 -8.6464,-0.83676 -3.9049,1.95242 -18.8079,20.37425 -9.7621,36.95658 9.0457,16.582323 27.4484,-1.67775 25.2251,-6.67009 -3.0538,-6.85692 -8.73,9.43265 -16.7689,3.58508 -8.0389,-5.84758 0.5924,-26.16529 1.8637,-23.83054 z"
       id="path3137"
       inkscape:connector-curvature="0"
       sodipodi:nodetypes="cssszszc" />
    <path
       style="fill:none;stroke:#000000;stroke-width:0.76094371;stroke-linecap:butt;stroke-linejoin:miter;stroke-opacity:1"
       d="m 1769.2026,-153.57568 c -9.3059,3.85289 -8.3625,21.20064 -8.3625,22.45577 -0.8073,11.87596 3.8948,21.17061 16.8676,15.75787 7.4944,-8.81173 6.3961,-18.21365 5.2115,-25.83688 -1.4824,-7.94933 -5.1242,-12.65476 -13.7166,-12.37676 z m 8.3335,19.8846 c 1.2752,6.13441 0.05,8.50186 -3.4625,8.98418 -2.7171,0.37311 -4.8005,-2.69046 -5.4259,-8.81986 -0.7587,-7.43601 -0.6341,-9.92958 1.9615,-10.37332 3.4831,-1.7257 5.4769,3.23371 6.9269,10.209 z"
       id="path3141"
       inkscape:connector-curvature="0"
       sodipodi:nodetypes="cccccssscs" />
    <path
       style="fill:none;stroke:#000000;stroke-width:0.76094371;stroke-linecap:butt;stroke-linejoin:miter;stroke-opacity:1"
       d="m 1798.072,-135.44265 c 0,0 0.6127,7.5547 -4.4078,8.80983 -5.0205,1.25513 -4.7078,-4.00636 -7.0786,-9.16633 -2.3708,-5.15998 -6.0854,-26.00121 -1.2043,-27.3958 4.881,-1.39458 8.4757,12.01573 9.3437,11.01725 3.5233,-3.47536 2.7046,-4.86414 5.2177,-4.0344 1.6084,-0.37226 -3.04,-20.98068 2.5342,-23.34738 2.9525,-1.25354 5.5206,0.18731 5.66,16.92236 0.1395,16.73506 4.8279,22.33942 0.3029,27.9186 -4.5382,5.59551 -10.3678,-0.72413 -10.3678,-0.72413 z"
       id="path3145"
       inkscape:connector-curvature="0"
       sodipodi:nodetypes="csssccsssc" />
    <path
       style="fill:none;stroke:#000000;stroke-width:0.76094371;stroke-linecap:butt;stroke-linejoin:miter;stroke-opacity:1"
       d="m 1816.7595,-185.64781 c -3.1329,0.83385 -10.5271,11.32709 -4.7148,18.46222 3.0524,3.7471 9.1197,1.10285 9.6775,2.35798 1.544,0.86069 -0.1798,10.48391 -2.2412,10.55803 -3.239,0.11644 -6.2947,-1.86138 -6.7081,1.90456 -0.407,3.70888 4.2673,13.25043 11.8978,1.33102 6.2616,-6.70324 7.4924,-9.94403 6.894,-14.24396 -0.2949,-2.1189 -5.2014,-8.8447 -8.438,-7.5058 -7.2412,2.99549 -9.4878,-2.39595 -3.9964,-5.05436 8.5376,-3.45265 1.6304,-9.91663 -2.3708,-7.80969 z"
       id="path3147"
       inkscape:connector-curvature="0"
       sodipodi:nodetypes="cscsscsscc" />
    <path
       style="fill:#000000;stroke:#000000;stroke-width:0.76094371;stroke-linecap:butt;stroke-linejoin:miter;stroke-opacity:1"
       d="m 1623.0512,85.460061 c 0,0 10.32,-25.102578 7.2519,-34.306861 -3.0681,-9.204277 -23.4291,-42.6743878 -11.4356,-49.9262464 11.9934,-7.2518586 15.5114,-11.7546506 46.3003,15.0615514 25.9393,22.592326 52.1576,32.91227 47.1371,46.021396 -5.4892,14.332908 -20.2216,19.245311 -23.2897,37.096037 -2.1815,12.692512 -1.534,21.616112 -11.575,27.612832 -6.001,3.58388 -41.1404,5.4389 -41.1404,5.4389 z"
       id="path3175"
       inkscape:connector-curvature="0"
       sodipodi:nodetypes="csssssscc" />
    <path
       style="fill:#000000;stroke:#000000;stroke-width:0.76094371;stroke-linecap:butt;stroke-linejoin:miter;stroke-opacity:1"
       d="m 1702.5428,-71.291612 c 0,0 -11.7146,30.680929 -0.5579,43.511138 11.1567,12.830209 31.1598,21.2524247 39.0485,29.0074276 16.4561,16.1772184 1.647,57.3281624 35.7014,66.6612984 28.1935,7.726857 51.395,-14.739853 61.6408,-29.844178 17.8427,-26.303527 25.1026,-60.525114 40.1642,-66.661299 15.0615,-6.136184 38.4906,0 39.3273,-20.639901 0.8495,-20.953609 -31.7966,-26.497169 -31.7966,-26.497169 z"
       id="path3177"
       inkscape:connector-curvature="0"
       sodipodi:nodetypes="csssssscc" />
    <path
       style="fill:#000000;stroke:#000000;stroke-width:0.76094371;stroke-linecap:butt;stroke-linejoin:miter;stroke-opacity:1"
       d="m 1966.3988,-76.312129 c 0,0 4.3034,8.372178 4.7415,20.639902 0.8368,23.429077 -26.3479,25.445378 -25.6604,53.5521715 0.4338,17.7323735 18.4924,16.9009415 37.9328,9.2042766 21.5788,-8.5432551 25.1673,-8.4175154 44.069,-7.25185176 29.9704,1.84825446 20.9188,28.44959366 40.4431,30.68092866 14.2302,1.626315 30.6809,-19.524227 30.6809,-19.524227 1.7305,-15.4464113 4.6223,-29.925082 8.3675,-44.905729 0,0 -18.6874,-14.224794 -21.7556,-24.823662 -3.068,-10.598867 -5.0205,-24.823668 -5.0205,-24.823668 l -61.3618,-10.598867 z"
       id="path3179"
       inkscape:connector-curvature="0"
       sodipodi:nodetypes="csssssccsccc" />
    <path
       style="fill:#000000;stroke:#000000;stroke-width:0.76094371;stroke-linecap:butt;stroke-linejoin:miter;stroke-opacity:1"
       d="m 1886.3494,137.05982 c 0,0 -11.4356,-6.1362 -11.4356,-7.8097 0,-1.67351 1.3946,-11.15671 3.0681,-14.2248 1.6735,-3.06809 8.9254,-12.83021 8.9254,-12.83021 0,0 -12.5513,-16.735049 -1.9525,-27.89175 10.5989,-11.156702 21.4796,-16.08227 44.9058,-15.619385 15.6415,0.309062 29.8442,-25.381502 45.4635,-23.15016 21.7984,4.966632 41.7783,17.542139 49.0895,35.980369 7.905,7.528893 26.4972,9.762111 34.3069,24.823662 7.9767,15.383744 3.6546,15.894774 5.5783,20.639904 4.1837,10.31995 14.7827,16.45613 3.347,28.72851 -10.6548,11.43454 -37.9328,-3.06809 -46.0214,-20.36099 -8.0886,-17.29289 -8.7634,-24.63253 -16.1772,-24.26582 -19.9197,0.98528 -32.619,-9.990334 -35.1436,-11.435622 -5.3648,4.844698 -11.0178,8.195878 -22.0345,8.646442 l -6.1362,5.43889 c 0,0 -8.2948,13.79554 -11.8539,17.99018 -3.9049,4.60215 -29.1469,15.89831 -29.1469,15.89831 z"
       id="path3181"
       inkscape:connector-curvature="0"
       sodipodi:nodetypes="csscssccssssscccscc" />
    <path
       style="fill:#000000;stroke:#000000;stroke-width:0.76094371;stroke-linecap:butt;stroke-linejoin:miter;stroke-opacity:1"
       d="m 1314.2895,-39.495009 c 0,0 -8.9224,32.2674722 13.1091,54.110006 22.5055,22.312323 40.3747,2.234591 57.7359,25.102584 9.6711,12.73858 -5.0327,48.023949 13.1092,52.436505 19.042,4.631479 30.1231,-37.932794 30.1231,-37.932794 0,0 14.2248,16.735059 25.1025,18.40856 8.2887,1.275166 13.667,-3.904843 13.667,-3.904843 l -0.5578,-124.95507 z"
       id="path3183"
       inkscape:connector-curvature="0"
       sodipodi:nodetypes="cssscsccc" />
    <path
       style="fill:#000000;stroke:#000000;stroke-width:0.76094371;stroke-linecap:butt;stroke-linejoin:miter;stroke-opacity:1"
       d="m 1308.1533,132.0393 c -21.6624,-2.0132 -63.9922,32.83224 -69.1716,28.44959 -5.2887,-4.47526 -4.7416,-19.24532 -4.7416,-19.24532 0,0 -17.7885,-7.50236 -16.4561,-20.08206 1.2815,-12.09914 16.1772,-17.29289 27.6129,-28.170673 11.4356,-10.877785 15.6059,-22.23085 33.1912,-21.755569 20.6398,0.557833 32.2618,18.319087 41.2797,23.42907 10.7581,6.096022 47.1996,13.357782 51.3209,25.102582 3.3297,9.48926 0.2789,19.80315 0.2789,19.80315 16.7227,5.59069 15.2383,33.15404 10.041,35.70145 -30.4544,14.92703 -36.5696,-5.04498 -37.9327,-17.57181 -1.3538,-12.44044 -16.7568,-23.92571 -35.4226,-25.66041 z"
       id="path3185"
       inkscape:connector-curvature="0"
       sodipodi:nodetypes="sscssssscsss" />
    <path
       style="fill:#000000;stroke:#000000;stroke-width:0.76094371;stroke-linecap:butt;stroke-linejoin:miter;stroke-opacity:1"
       d="m 1019.1947,-50.65171 c 0,0 2.5103,17.571802 0.2789,19.524227 -2.2313,1.952425 -12.5513,17.850726 -11.9934,20.360985 0.5578,2.5102582 8.0916,17.0129859 10.7383,24.963123 3.2029,9.620628 -4.0022,48.580909 0.9762,57.596476 8.0819,14.635614 41.7403,14.96419 48.5316,20.360985 6.794,5.398849 21.2386,22.511724 31.7967,22.871234 10.9604,0.37322 33.662,-9.43872 37.3749,-10.04102 9.8441,-1.5969 45.9741,-13.675622 48.8106,-29.84419 3.358,-19.14204 -24.9596,-32.34068 -21.1977,-55.22568 1.9535,-11.8843681 31.3954,-47.154537 27.6128,-47.694904 z"
       id="path3187"
       inkscape:connector-curvature="0"
       sodipodi:nodetypes="cssssssssscc" />
    <path
       style="fill:#000000;stroke:#000000;stroke-width:0.76094371;stroke-linecap:butt;stroke-linejoin:miter;stroke-opacity:1"
       d="m 968.98953,158.53646 c 0,0 4.7416,-24.26583 0.55789,-35.1436 -4.18379,-10.8778 -8.08867,-27.891765 -8.36758,-31.796615 -0.27891,-3.904842 0.85893,-37.943967 15.61944,-36.538203 17.57174,1.673508 4.92645,34.351547 17.01392,45.742488 12.0349,11.3414 24.6808,8.02643 32.9123,22.87124 7.0814,12.77065 -1.0212,37.51418 0.2789,41.55872 2.5102,7.80969 15.3237,17.51071 4.4627,28.17067 -14.0313,13.77154 -34.30691,-6.97294 -35.98037,-7.53077 -1.67353,-0.55784 -26.4972,-27.33393 -26.4972,-27.33393 z"
       id="path3189"
       inkscape:connector-curvature="0"
       sodipodi:nodetypes="cssssssssc" />
    <path
       style="fill:#000000;stroke:#000000;stroke-width:0.76094371;stroke-linecap:butt;stroke-linejoin:miter;stroke-opacity:1"
       d="m 2001.5424,386.13319 c 0,0 16.1772,14.50372 11.1567,29.56528 -5.0205,15.06154 -24.5929,35.5087 -23.1502,43.51114 1.6324,9.05406 13.667,18.40855 15.8983,25.10257 2.2314,6.69402 3.0681,36.81712 19.8032,36.81712 16.735,0 24.2658,-11.71453 24.2658,-11.71453 l 9.7621,-26.77608 c 0,0 15.0616,-10.87779 19.2453,-21.47667 3.4089,-8.63578 11.9934,-15.34045 11.9934,-15.34045 l -4.7415,-63.59321 z"
       id="path3191"
       inkscape:connector-curvature="0"
       sodipodi:nodetypes="cssssccsccc" />
    <path
       style="fill:#000000;stroke:#000000;stroke-width:0.76094371;stroke-linecap:butt;stroke-linejoin:miter;stroke-opacity:1"
       d="m 1818.2936,598.11055 c 0,0 2.5102,-14.2248 1.9524,-16.45614 -0.5579,-2.23134 -5.0206,-16.17721 -3.0682,-22.59232 1.9525,-6.41511 9.4833,-18.82691 28.7286,-21.05825 19.2453,-2.23134 30.2625,-2.92865 31.3782,-4.04432 1.1157,-1.11567 23.4291,-29.28636 36.3987,-28.4496 15.9263,1.0275 17.7113,4.04431 27.4734,5.15998 9.7622,1.11567 42.9533,0.69728 51.0419,12.69074 11.2989,16.75352 -0.3451,30.808 0.6973,37.93279 1.819,12.43212 22.8957,25.09217 22.3135,35.70145 -0.7294,13.2879 -2.6498,18.26909 -28.3102,29.00742 -23.181,9.70077 -20.0821,-28.86796 -20.0821,-28.86796 0,0 -0.7377,-26.57432 -7.1123,-32.77281 -7.3983,-7.19388 -22.843,-23.96501 -58.1544,-10.18049 -17.6788,6.9013 -28.1706,19.10585 -50.4841,32.07553 -1.1156,0.83673 -32.7727,11.85398 -32.7727,11.85398 z"
       id="path3195"
       inkscape:connector-curvature="0"
       sodipodi:nodetypes="ccssssssssscsscc" />
    <path
       style="fill:#000000;stroke:#000000;stroke-width:0.25364789px;stroke-linecap:butt;stroke-linejoin:miter;stroke-opacity:1"
       d="m 933.35866,383.53424 c 0,0 1.44478,79.46479 12.2809,94.27415 10.83606,14.80934 21.01033,38.90898 61.04344,57.79256 9.5718,4.51506 20.5367,30.1007 48.943,31.42474 32.6701,1.52275 54.8476,-55.33288 78.7424,-65.73906 24.3418,-10.60086 23.6589,-0.1806 39.7324,-5.05688 8.216,-2.49247 38.2191,-26.34339 38.4682,-35.75913 0.4005,-15.13966 -14.2675,-18.24078 -17.3378,-26.54849 -4.7066,-12.73571 -2.8896,-18.60198 -2.8896,-18.60198 z"
       id="path3067"
       inkscape:connector-curvature="0"
       sodipodi:nodetypes="cssssssscc" />
    <path
       style="fill:#000000;stroke:#000000;stroke-width:0.25364789px;stroke-linecap:butt;stroke-linejoin:miter;stroke-opacity:1"
       d="m 1346.5756,543.54744 c 0,0 -31.9666,0.18059 -42.0803,-10.2943 -9.7428,-10.09075 -13.3042,-26.28168 -17.1571,-31.78591 -6.3211,-9.0301 -25.6087,-11.5487 -26.0067,-18.42141 -0.314,-5.42206 7.224,-12.1003 8.6689,-15.71235 1.4448,-3.61202 7.224,-10.1137 15.1705,-11.55851 7.9465,-1.4448 27.1963,6.38062 34.495,-11.9197 6.1685,-15.46676 -13.9064,-34.31435 -13.9064,-34.31435 l 94.9965,-1.44483 c 0,0 -7.6659,113.85927 -10.836,116.48816 -14.8094,12.28094 -43.3444,18.9632 -43.3444,18.9632 z"
       id="path3069"
       inkscape:connector-curvature="0"
       sodipodi:nodetypes="cssssssccsc" />
    <path
       style="fill:#000000;stroke:#000000;stroke-width:0.25364789px;stroke-linecap:butt;stroke-linejoin:miter;stroke-opacity:1"
       d="m 1101.3183,659.13258 c 0,0 -17.3377,-12.28092 -14.8093,-14.80933 2.5284,-2.52844 3.7926,-5.77925 3.9732,-11.19731 0.061,-1.80502 -5.0569,-14.98996 3.0702,-26.00668 8.1271,-11.01669 22.7558,-24.92303 31.0635,-30.34108 8.3077,-5.41807 21.6722,-13.54515 28.3545,-18.7826 6.6823,-5.23745 32.1357,-28.58696 44.2475,-27.45148 23.117,2.16724 14.8731,36.27023 38.8293,39.91302 19.3128,2.93668 33.5087,-20.41827 54.7224,-6.32105 22.7168,15.09603 7.3448,45.30232 10.2943,57.97315 2.3247,9.9869 11.0167,10.47489 3.7926,26.72906 -5.4595,12.28383 -15.3511,18.9632 -34.3143,19.68559 -18.9632,0.72241 0.1806,-39.55178 0.1806,-39.55178 l -4.5151,-12.82274 c 0,0 -9.9525,-22.22553 -45.5116,-24.38124 -31.6089,-1.91621 -59.0568,20.408 -59.0568,20.408 l -39.3712,36.30097 z"
       id="path3072"
       inkscape:connector-curvature="0"
       sodipodi:nodetypes="csssssssssssccsccc" />
    <path
       style="fill:#000000;stroke:#000000;stroke-width:0.25364789px;stroke-linecap:butt;stroke-linejoin:miter;stroke-opacity:1"
       d="m 826.80357,515.37355 c 0,0 40.43144,-14.0954 63.03001,2.70903 18.4853,13.74577 14.03497,35.31284 19.50501,42.26081 7.43671,9.4461 51.11027,36.66219 40.63545,58.515 -12.29863,25.65735 -14.62879,14.26755 -20.94986,26.18727 -4.62204,8.71585 -7.58526,19.14377 -7.58526,19.14377 l -88.49493,-41.89962 z"
       id="path3074"
       inkscape:connector-curvature="0"
       sodipodi:nodetypes="cssssccc" />
    <path
       style="fill:#000000;stroke:#000000;stroke-width:0.25364789px;stroke-linecap:butt;stroke-linejoin:miter;stroke-opacity:1"
       d="m 1682.4949,374.14295 c -1.4448,2.88964 -9.3913,9.39129 -9.3913,9.39129 0,0 -39.3722,41.09723 -6.7133,70.54052 26.4792,23.872 67.2579,-13.69047 74.0248,-0.46701 8.4091,16.43207 -15.1854,34.79141 9.2856,59.53661 42.339,39.5395 82.2342,-6.65341 94.794,-30.82093 5.3836,-10.35911 89.7667,-12.28549 98.6796,-40.93464 6.7997,-21.85615 -24.4523,-58.03515 -24.4523,-58.03515 z"
       id="path3076"
       inkscape:connector-curvature="0"
       sodipodi:nodetypes="ccsscsscc" />
    <path
       style="fill:#000000;stroke:#000000;stroke-width:0.25364789px;stroke-linecap:butt;stroke-linejoin:miter;stroke-opacity:1"
       d="m 1563.2977,543.54744 c 0,0 14.0038,-25.7215 10.4749,-41.71902 -2.709,-12.28092 -4.3344,-22.39463 -2.8896,-26.90966 1.4448,-4.51503 15.5992,-30.15245 31.4247,-25.28425 14.0709,4.32845 9.0301,33.05014 15.7123,41.17722 6.6823,8.12709 35.398,8.84947 38.6488,26.54844 3.2508,17.69899 -10.4749,26.54848 -12.4615,39.01001 -1.9866,12.46152 13.3645,15.53175 4.515,39.91299 -8.8494,24.38124 -28.7157,18.60198 -28.7157,18.60198 0,0 -54.9029,-12.82274 -55.2641,-14.26754 -0.3612,-1.44481 -1.4448,-57.07017 -1.4448,-57.07017 z"
       id="path3078"
       inkscape:connector-curvature="0"
       sodipodi:nodetypes="cszszzzzcsc" />
    <path
       style="fill:#000000;stroke:#000000;stroke-width:0.25364789px;stroke-linecap:butt;stroke-linejoin:miter;stroke-opacity:1"
       d="m 742.10131,163.01945 c 0,0 -13.67648,-29.43809 -24.92303,-37.38457 -11.24662,-7.94649 -42.98327,-0.36121 -59.41802,-28.535086 -16.43478,-28.173879 -7.04345,-72.240721 -9.03007,-78.742388 -1.98662,-6.501667 -5.77929,-10.2942995 -0.54182,-19.8661958 5.23746,-9.5718962 54.18054,-2.5284264 62.84942,-14.0869392 6.91476,-9.219683 6.32107,-21.311018 6.32107,-21.311018 l 53.81932,9.391296 23.11702,28.17387899 3.25086,31.24411501 -28.35447,24.38124 z"
       id="path3080"
       inkscape:connector-curvature="0"
       sodipodi:nodetypes="czzzzscccccc" />
    <path
       style="fill:#000000;stroke:#000000;stroke-width:0.25364789px;stroke-linecap:butt;stroke-linejoin:miter;stroke-opacity:1"
       d="m 562.22193,168.97931 c 0,0 -8.93338,-20.32944 -12.00361,-35.13879 -3.07023,-14.80935 -1.72214,-15.6942 -3.70877,-19.22236 -1.98661,-3.52815 -10.40914,-6.19335 -10.58069,-12.73884 -0.17152,-6.545488 19.56935,-29.180878 29.90509,-28.980171 26.53956,0.515368 58.80297,27.503921 87.77247,44.247441 17.4182,10.06722 26.96443,18.20237 30.62173,23.71407 3.65723,5.5117 10.30063,27.87654 6.27021,31.74352 -5.12413,4.91631 -8.92058,8.19813 -11.08775,7.29512 -2.16724,-0.90301 -2.46271,-28.01143 -13.67287,-38.6178 -11.21015,-10.60637 -16.68754,-6.54038 -27.85274,-7.54146 -11.50124,-1.0312 -20.6266,-6.09923 -30.57838,-0.26448 -9.95174,5.83475 -33.75059,29.91417 -33.75059,29.91417 z"
       id="path3082"
       inkscape:connector-curvature="0"
       sodipodi:nodetypes="cszzsszsszszcc" />
    <path
       style="fill:#000000;stroke:#000000;stroke-width:0.25364789px;stroke-linecap:butt;stroke-linejoin:miter;stroke-opacity:1"
       d="m 582.99112,406.29006 c 0,0 -15.44145,36.02046 -2.8896,48.76249 11.9197,12.10033 24.92304,10.29432 33.9531,23.29764 9.0301,13.00333 7.71303,38.42443 13.90638,44.96984 10.18754,10.7667 35.57853,6.14046 35.57853,6.14046 0,0 14.08692,-25.64545 15.53177,-26.00667 1.44478,-0.36119 17.15712,-24.74244 17.15712,-34.49492 0,-9.75251 -31.60528,-40.63541 -31.60528,-40.63541 z"
       id="path3084"
       inkscape:connector-curvature="0"
       sodipodi:nodetypes="cszsccscc" />
    <path
       style="fill:#000000;stroke:#000000;stroke-width:0.25364789px;stroke-linecap:butt;stroke-linejoin:miter;stroke-opacity:1"
       d="m 343.21365,-69.610236 c 0,0 31.2479,25.082183 41.37634,66.1510622 4.99296,20.2455318 -7.24697,79.0726478 40.3547,90.9257858 76.68466,19.094998 94.43867,-32.792371 99.60971,-38.949946 15.50519,-18.463264 76.48671,-26.737517 99.99285,-85.051374 5.30873,-13.169884 -21.32672,-19.283413 -21.32672,-19.283413 z"
       id="path3097"
       inkscape:connector-curvature="0"
       sodipodi:nodetypes="csssscc" />
    <path
       style="fill:#000000;stroke:#000000;stroke-width:0.25364789px;stroke-linecap:butt;stroke-linejoin:miter;stroke-opacity:1"
       d="m 244.37016,36.640124 c 0,0 67.88447,-9.519647 80.75322,17.741883 12.86875,27.261529 -5.94923,36.77897 -3.10873,46.533663 2.8405,9.75471 29.8413,0.38156 30.97936,25.35504 1.13807,24.97347 -25.24172,39.28924 -25.24172,39.28924 l -29.49073,-22.41406 z"
       id="path3099"
       inkscape:connector-curvature="0"
       sodipodi:nodetypes="czzzccc" />
    <path
       style="fill:#000000;stroke:#000000;stroke-width:0.25364789px;stroke-linecap:butt;stroke-linejoin:miter;stroke-opacity:1"
       d="m 242.01494,390.03592 c 5.05685,5.05683 24.92303,16.25414 24.56184,29.97989 -0.36122,13.72573 -10.83612,63.21063 -1.44483,74.76914 9.39132,11.55853 13.36453,10.47492 15.53177,14.08694 2.16722,3.61205 11.0224,34.20059 33.77254,35.39796 27.45145,1.44481 36.66217,-19.14379 41.3578,-28.8963 4.69565,-9.75249 22.39465,-56.88957 40.09361,-43.70562 12.62977,9.40791 -25.18241,45.06573 -6.14045,62.66881 17.26319,15.95875 49.98327,-14.06168 58.51497,-28.35448 2.47494,-4.14618 22.30143,-16.38832 33.06333,-22.30813 14.38818,-7.9145 21.81364,-19.07767 31.41153,-21.21691 21.77113,-4.85249 39.19058,-37.38456 39.19058,-37.38456 l -93.19054,-5.41804 -183.85263,-24.20065 z"
       id="path3101"
       inkscape:connector-curvature="0"
       sodipodi:nodetypes="csssssssssscccc" />
    <path
       style="fill:#000000;stroke:#000000;stroke-width:0.25364789px;stroke-linecap:butt;stroke-linejoin:miter;stroke-opacity:1"
       d="m 443.56653,641.97543 c -0.3612,-0.90301 -5.77924,-18.42138 -9.93308,-23.47824 -4.15384,-5.05684 -19.50499,-11.7391 -18.06019,-22.39462 1.44483,-10.65552 10.5859,-12.82877 18.60198,-18.42138 7.76589,-5.41807 8.8495,-33.59196 30.5217,-33.77256 21.67224,-0.1806 22.21403,18.06019 44.78926,22.57525 22.57519,4.51503 39.25769,-14.00631 51.1103,-11.19731 31.24412,7.40469 58.76081,37.42493 51.29091,85.06343 -4.6861,29.8851 -17.15718,31.42472 -26.36787,26.54846 -15.74035,-8.33314 -14.80933,-39.91299 -14.80933,-39.91299 0,0 -7.27166,-22.4732 -43.86432,-24.19157 -36.59267,-1.71836 -61.16205,38.01934 -61.16205,38.01934 z"
       id="path3103"
       inkscape:connector-curvature="0"
       sodipodi:nodetypes="czzszzsssczcc" />
    <path
       style="fill:#000000;stroke:#000000;stroke-width:0.25364789px;stroke-linecap:butt;stroke-linejoin:miter;stroke-opacity:1"
       d="m 160.59584,532.90079 c -0.0315,-0.0382 18.63115,-23.3475 16.34621,-33.58632 -2.6057,-11.6762 -12.24584,-32.805 6.76837,-38.82224 14.98113,-4.74093 14.41478,12.75106 21.45437,17.11241 12.81904,7.94197 20.68818,6.38525 22.60376,16.21852 1.91555,9.83327 -13.28131,39.97159 -10.34409,49.93255 2.93722,9.96096 24.51933,26.05177 25.79637,34.48028 0.91828,6.06067 -0.38311,24.90242 -5.2359,27.71192 -4.85279,2.80951 -27.32881,12.51509 -27.32881,12.51509 l -30.90456,-64.3632 z"
       id="path3106"
       inkscape:connector-curvature="0"
       sodipodi:nodetypes="cssszzssccc" />
    <path
       style="fill:#000000;stroke:#000000;stroke-width:0.25364789px;stroke-linecap:butt;stroke-linejoin:miter;stroke-opacity:1"
       d="m 609.35037,862.6345 c 0,0 -5.61902,48.78321 -22.98687,79.43235 -11.9405,21.07152 -25.54095,44.69666 -25.54095,44.69666 0,0 -11.52786,8.98847 -25.03013,2.8095 -15.06917,-6.89605 -5.61901,-26.30716 -8.93931,-39.84387 -2.62688,-10.70962 -10.2164,-17.11243 -11.23805,-28.09506 -1.02164,-10.98259 12.77049,-34.22485 10.98263,-45.7183 -1.78786,-11.49342 -17.36786,-27.58421 -17.36786,-27.58421 l 56.70091,3.0649 z"
       id="path3119"
       inkscape:connector-curvature="0"
       sodipodi:nodetypes="cscsszzccc" />
    <path
       style="fill:#000000;stroke:#000000;stroke-width:0.25364789px;stroke-linecap:butt;stroke-linejoin:miter;stroke-opacity:1"
       d="m 33.912739,907.58656 c 0,0 36.268147,-1.53244 51.848118,13.28131 15.579963,14.81375 13.025906,19.66651 20.177363,26.30717 7.15147,6.64065 35.5019,15.32456 42.39796,30.39373 6.89605,15.06915 12.77048,54.14683 10.98262,68.96063 -1.78787,14.8137 -1.02164,29.8829 -20.68816,25.0301 -16.97298,-4.1881 -76.87827,-81.73108 -76.87827,-81.73108 z"
       id="path3121"
       inkscape:connector-curvature="0"
       sodipodi:nodetypes="czzssscc" />
    <path
       style="fill:#000000;stroke:#000000;stroke-width:0.25364789px;stroke-linecap:butt;stroke-linejoin:miter;stroke-opacity:1"
       d="m 137.86439,808.23227 c 0.76625,2.04326 14.30296,19.92194 15.58,28.35045 1.27704,8.42852 -4.14199,44.02468 2.80948,56.70091 8.68394,15.83539 25.34939,29.19716 27.58426,30.90457 5.17208,3.95137 24.30967,22.58539 37.9283,21.07128 24.25391,-2.69655 25.05298,-25.48555 64.74632,-21.5821 34.43036,3.38589 46.2291,21.96519 58.23337,23.24226 12.00424,1.27704 27.71192,-10.59949 36.90665,-13.91982 9.19474,-3.32033 38.69455,4.21426 46.35685,-0.63853 7.66227,-4.85279 17.49554,-21.9652 15.57997,-26.81799 -1.91558,-4.85279 -25.13446,-21.41362 -29.6275,-32.05392 -5.97952,-14.1606 -2.29869,-18.00636 -2.29869,-18.00636 L 147.05913,816.66079 z"
       id="path3123"
       inkscape:connector-curvature="0"
       sodipodi:nodetypes="czsssszzszsccc" />
    <path
       style="fill:#000000;stroke:#000000;stroke-width:0.25364789px;stroke-linecap:butt;stroke-linejoin:miter;stroke-opacity:1"
       d="m 283.44782,1069.5162 c 0,0 -12.38735,-35.7573 -10.21638,-43.1642 3.02153,-10.3087 2.95398,-17.6448 20.94358,-30.90457 12.35674,-9.10794 16.72932,-19.1557 26.56259,-19.92194 9.83327,-0.76624 26.46275,8.46167 36.26815,15.19688 4.98527,3.42433 34.84968,5.49409 42.91291,2.93359 22.49226,-7.14244 30.90114,-21.47444 59.5063,-16.08719 23.53759,4.43288 24.39985,30.42863 30.26604,36.26813 8.55401,8.5152 38.10445,28.3832 30.77685,52.8698 -4.35572,14.5554 -32.94783,18.1341 -32.94783,18.1341 l -8.68394,-32.437 c 0,0 -6.64065,-26.4349 -40.35469,-28.2228 -33.71407,-1.7878 -62.0645,28.989 -62.0645,28.989 l -71.77008,19.1557 z"
       id="path3125"
       inkscape:connector-curvature="0"
       sodipodi:nodetypes="csszsssssccsccc" />
    <path
       style="fill:#000000;stroke:#000000;stroke-width:0.25364789px;stroke-linecap:butt;stroke-linejoin:miter;stroke-opacity:1"
       d="m 762.59608,965.30911 c 0,0 5.3636,-49.29404 26.81803,-46.73993 21.45435,2.55408 21.70976,40.86552 36.77894,58.74417 8.3932,9.95804 20.9436,16.85703 21.70976,28.09505 0.59988,8.7977 -10.84485,38.6705 -4.08649,46.2291 9.70551,10.855 19.86961,12.9116 16.98472,22.9869 -2.80793,9.8065 -21.96524,8.0454 -21.96524,8.0454 l -50.95422,-11.8766 z"
       id="path3128"
       inkscape:connector-curvature="0"
       sodipodi:nodetypes="czssssccc" />
    <path
       style="fill:#000000;stroke:#000000;stroke-width:0.25364789px;stroke-linecap:butt;stroke-linejoin:miter;stroke-opacity:1"
       d="m 827.98092,839.13681 c 0,0 22.47606,24.0085 28.86124,46.48453 3.39653,11.95566 12.27327,60.90702 25.79639,70.49303 20.17737,14.30293 45.20746,4.8528 57.21172,14.81378 12.00426,9.96095 21.21008,30.83525 43.16419,30.13825 32.18164,-1.0216 73.81334,-50.06022 96.54484,-58.23331 22.7315,-8.17312 88.1275,-13.13701 79.6877,-40.35472 -7.7337,-24.94097 -48.2724,-9.70556 -71.0038,-14.55835 -9.6482,-2.0597 -6.1298,-31.15996 -6.1298,-31.15996 z"
       id="path3130"
       inkscape:connector-curvature="0"
       sodipodi:nodetypes="csszszsscc" />
    <path
       style="fill:#000000;stroke:#000000;stroke-width:0.25364789px;stroke-linecap:butt;stroke-linejoin:miter;stroke-opacity:1"
       d="m 1194.4936,849.99172 c 0,0 9.067,16.60163 5.7467,32.1816 -3.3204,15.58 -36.6607,52.83418 -37.1621,63.98007 -0.5271,11.71882 10.9826,18.38948 14.8137,26.81799 3.8312,8.42852 2.6162,24.80598 18.2618,27.07342 16.9672,2.459 29.337,-26.25099 37.0344,-31.92618 15.0692,-11.11031 26.9457,-9.06706 26.9457,-9.06706 l 23.2422,-31.15993 c 0,0 17.3679,-15.06917 23.2423,-24.77473 5.8745,-9.70556 4.0866,-30.01063 4.0866,-30.01063 L 1255.281,843.9896 z"
       id="path3132"
       inkscape:connector-curvature="0"
       sodipodi:nodetypes="czssssccsccc" />
    <path
       style="fill:#000000;stroke:#000000;stroke-width:0.25364789px;stroke-linecap:butt;stroke-linejoin:miter;stroke-opacity:1"
       d="m 1011.6204,1085.607 c 0,0 -3.065,-18.1341 2.5541,-25.5409 5.619,-7.4069 6.0021,-8.0455 5.619,-13.6645 -0.3832,-5.619 -8.9466,-7.8575 -6.8961,-16.857 2.2987,-10.0887 5.2339,-12.939 30.6491,-14.1752 27.4746,-1.3364 53.8367,-36.66157 80.8372,-34.86341 17.2842,1.15108 22.0929,14.04753 29.4998,18.9003 7.4068,4.85281 14.3029,5.10821 18.3894,9.19471 8.0501,7.0557 12.3623,17.1622 19.8689,24.1037 18.0396,16.6812 16.5466,20.4257 13.3344,30.9371 -18.3216,35.712 -32.0041,32.7643 -22.7315,-0.7663 0,0 -13.7921,-32.1815 -26.0517,-35.2465 -12.2597,-3.0649 -67.939,4.8528 -78.2831,21.8376 -8.0262,13.1789 -2.9372,14.1752 -2.9372,14.1752 z"
       id="path3134"
       inkscape:connector-curvature="0"
       sodipodi:nodetypes="cszsssscscczscc" />
    <path
       style="fill:#000000;stroke:#000000;stroke-width:0.25364789px;stroke-linecap:butt;stroke-linejoin:miter;stroke-opacity:1"
       d="m 1430.2365,925.46524 c 4.0866,1.27704 67.5064,-7.39026 68.9606,7.15147 1.7879,17.87865 -8.4285,40.48239 -4.4696,44.18582 3.9588,3.70346 19.9219,0.76622 27.2011,2.80951 7.2791,2.04328 35.1991,12.78162 37.8006,23.75306 2.9371,12.3874 0.7662,54.1468 -33.5864,62.4477 -34.3378,8.2971 -73.4302,-62.1923 -73.4302,-62.1923 z"
       id="path3136"
       inkscape:connector-curvature="0"
       sodipodi:nodetypes="cszzsscc" />
    <path
       style="fill:#000000;stroke:#000000;stroke-width:0.25364789px;stroke-linecap:butt;stroke-linejoin:miter;stroke-opacity:1"
       d="m 1628.4343,1065.9405 c 0,0 -10.6908,-33.6318 3.1012,-45.3806 13.7922,-11.7488 20.8602,-11.2581 30.9431,-17.5431 9.6436,-6.01122 20.9175,-28.02668 35.3704,-32.84207 17.7234,-5.90499 41.6296,-1.01101 55.2872,0.60377 22.6467,2.67763 35.7347,-7.01865 46.1799,-3.99359 11.206,3.2454 11.082,25.7842 20.1699,35.96899 9.8526,11.0419 48.8989,8.3079 55.6739,41.7012 1.8087,8.9147 -11.8728,20.608 -11.8728,20.608 l -7.5422,-14.6594 c 0,0 -6.9944,-23.3762 -42.622,-27.8164 -37.9226,-4.7262 -56.22,24.478 -56.22,24.478 l -54.1806,23.117 z"
       id="path3149"
       inkscape:connector-curvature="0"
       sodipodi:nodetypes="csssssssccsccc" />
    <path
       style="fill:#000000;stroke:#000000;stroke-width:0.25364789px;stroke-linecap:butt;stroke-linejoin:miter;stroke-opacity:1"
       d="m 1560.4954,817.6824 c 0,0 10.3432,13.60177 8.1731,27.83966 -1.6736,10.98055 -28.0951,56.06237 -11.4934,71.25924 17.6832,16.18692 26.2947,12.24096 60.8513,4.72507 24.2052,-5.26453 33.987,-1.56488 42.5895,11.11031 7.7024,11.34882 18.5469,16.35363 44.6064,14.52736 22.2473,-1.5591 41.1442,7.54531 53.9069,7.75262 18.4217,0.29921 55.3753,-12.00239 58.2489,-25.8172 4.4665,-21.4737 -11.65,-33.12116 -4.8812,-42.92161 10.1024,-14.62703 18.6976,-4.95503 46.4328,-26.57012 5.5317,-4.31113 6.4034,-21.72796 6.4034,-21.72796 l -85.6964,-3.83115 -138.1765,-10.9826 z"
       id="path3151"
       inkscape:connector-curvature="0"
       sodipodi:nodetypes="cssssssssscccc" />
    <path
       style="fill:#000000;stroke:#000000;stroke-width:0.25364789px;stroke-linecap:butt;stroke-linejoin:miter;stroke-opacity:1"
       d="m 1913.2159,831.09143 c 0,1.02161 -4.6068,23.92842 -9.8332,31.41535 -5.2264,7.48695 -19.0922,16.6255 -20.9436,28.60585 -3.0391,19.66591 8.6595,19.94599 9.7055,37.2898 0.9091,15.07295 -13.0259,36.14046 -5.2358,51.84814 5.634,11.36043 12.5982,8.77766 14.8137,12.64277 5.8749,10.24916 27.9673,30.90456 27.9673,30.90456 l 33.5864,-71.51467 c 0,0 27.4565,-22.98687 33.331,-37.28979 5.8743,-14.30293 7.5345,-37.8006 7.5345,-37.8006 l -41.3763,-33.45866 c 0,0 -49.5495,-13.6644 -49.5495,-12.64275 z"
       id="path3155"
       inkscape:connector-curvature="0"
       sodipodi:nodetypes="zzssssccsccz" />
    <path
       inkscape:connector-curvature="0"
       style="fill:none;fill-opacity:1;stroke:#000000"
       d="m 2240.3449,1461.9804 -21.8313,-0.9693 c 18.513,-24.5109 23.9653,-65.1431 6.6642,-103.5685 -30.8211,-5.7658 -46.4581,-38.1251 -55.6129,-53.6495 -8.9644,-24.4272 -32.1,-86.93 -67.1047,-95.4216 -25.0862,-13.4542 -49.0707,10.494 -60.9273,8.9368 -13.5624,-1.7811 -23.3245,-12.523 -17.5007,-24.5713 25.3052,-22.4182 57.9123,-56.3753 54.3489,-68.0949 -0.2885,-10.1953 -5.919,-21.7184 -6.327,-21.8417 6.1781,-3.0392 29.3749,8.544 31.5885,7.403 3.8552,-5.8784 -5.3403,-27.1821 -8.4778,-29.4501 1.7478,-3.1629 28.1785,6.962 31.7759,18.2318 3.5333,-10.1021 -3.2663,-20.0722 -3.8389,-25.4778 4.0346,1.1862 15.3676,3.0364 27.7515,22.8052 12.8053,-1.5697 16.8734,-9.2223 25.2028,-16.7505 0.5218,10.0455 0.2155,20.6172 -3.2445,25.2653 42.3029,3.1312 21.3795,21.3996 147.7419,13.917 42.2324,-0.3866 95.5593,3.6108 137.0407,6.7494 39.8711,-0.2818 106.0552,0.1072 142.91,0.6202 60.9654,6.1639 77.0268,26.5702 81.959,60.8789 7.1192,49.5224 -16.1798,77.9233 7.1924,153.6637 24.7198,37.9512 14.4968,41.3538 4.5685,86.7392 -20.944,-25.0365 -4.3287,-58.2538 -12.7496,-72.8661 -16.0773,-40.7758 -20.4822,-62.996 -18.3292,-90.5558 2.5689,-32.8839 7.4962,-85.906 -2.4835,-85.4508 -9.9797,0.4552 -21.4689,57.3542 -25.8644,95.3455 -6.3537,54.9177 14.6713,62.4077 14.6596,79.7275 -0.043,63.8129 -7.3012,80.2888 -9.4202,106.9991 l -24.6988,-1.0809 c 9.344,-18.8581 9.4033,-37.9072 13.198,-60.5246 -1.8458,-7.9163 -6.545,-16.5841 -13.9655,-16.8919 -7.4205,-0.3078 -29.4148,63.3009 -35.0052,75.9033 l -21.2976,-1.9857 c -1.7239,-2.2347 20.0533,-47.481 26.884,-73.079 3.0991,-19.2874 -10.3096,-55.9693 -21.859,-54.0097 -1.4978,3.6689 2.4543,32.4196 -7.8705,32.0115 -10.3245,-0.408 -11.5614,-21.4766 -11.4429,-26.6916 -4.3808,1.2993 -6.5192,2.085 -12.3499,1.7052 -3.7084,3.0945 0.7933,29.0822 -8.5938,28.864 -9.3871,-0.2183 -8.0747,-19.7239 -8.2446,-24.1167 -31.0857,-4.3984 -38.2124,-14.9921 -43.5554,-19.1395 -40.4515,2.918 -23.6415,20.5401 -91.8845,23.195 -50.2418,-2.5613 -94.6715,-16.2941 -91.2397,-9.8252 -23.6131,23.1713 -3.789,74.5066 -13.8925,125.015 l -20.9908,3.1914 c 0,0 3.0094,-22.2913 0.5837,-23.8112 -3.7828,-2.3703 -11.6296,18.3881 -13.4669,22.6559 z"
       id="path3869"
       sodipodi:nodetypes="cccccscccccccccccccscccssssccczcccczcczccccccsc" />
    <path
       sodipodi:nodetypes="czssssccscczc"
       inkscape:connector-curvature="0"
       id="path3871"
       d="m 2590.2343,1110.4732 c 0.1062,1.0301 -2.5042,23.5903 -7.1109,31.6727 -4.6068,8.0825 -17.696,15.9429 -18.3546,28.2116 -1.0809,20.1393 11.0085,23.0038 13.8967,40.3848 2.51,15.1053 -7.392,38.0216 2.2786,53.0646 6.9936,10.8797 14.064,9.1439 16.8426,12.7462 16.4403,21.3146 37.3432,25.5378 37.3432,25.5378 l 20.1139,-64.963 c 0,0 29.9347,-33.7835 32.9878,-51.0704 2.7304,-15.4598 0.5506,-38.3798 0.5506,-38.3798 l -46.1468,-29.5136 c 0,0 -52.5072,-8.7209 -52.4005,-7.6909 z"
       style="fill:none;stroke:#000000" />
    <path
       sodipodi:nodetypes="cssssssssscccc"
       inkscape:connector-curvature="0"
       id="path3873"
       d="m 2239.3272,1109.5204 c 0,0 8.2786,8.2648 6.4587,22.8243 -1.4036,11.2284 -22.2642,61.4158 -4.7251,76.411 18.6815,15.972 26.4277,14.9788 61.795,6.3308 24.7731,-6.0576 33.4436,-2.5724 42.9235,8.5752 9.0861,10.6845 19.5757,16.1169 46.3586,13.5067 22.8647,-2.2282 46.3659,6.2458 59.5149,6.0893 18.9793,-0.226 54.1581,-16.0815 56.7149,-30.2304 3.974,-21.993 -14.2206,-30.8708 -7.5357,-41.0445 9.9772,-15.1842 20.1172,-10.1151 38.4831,-24.8668 5.6073,-4.5039 3.4438,-26.0837 3.4438,-26.0837 l -77.2849,-1.1807 -142.6133,-7.2022 z"
       style="fill:none;stroke:#000000" />
    <path
       sodipodi:nodetypes="csssszssccsccc"
       inkscape:connector-curvature="0"
       id="path3875"
       d="m 2326.9187,1348.6564 c 0,0 -11.427,-32.5421 1.7838,-44.3943 13.2109,-11.8522 20.1619,-11.5684 29.8838,-17.9834 9.2984,-6.1356 18.2422,-28.9441 32.2941,-34.045 17.2318,-6.2551 47.6288,-0.1231 61.0787,1.0763 22.3023,1.9888 36.0131,-7.6971 48.4877,-3.182 12.4746,4.515 14.4346,22.7864 21.0475,27.8009 20.6027,15.6228 58.2949,15.7761 65.8719,46.19 2.1485,8.6241 -11.0811,20.4492 -11.0811,20.4492 l -10.3271,-9.8477 c 0,0 -13.1826,-20.48 -48.1445,-24.9803 -37.4562,-4.8213 -54.2492,18.1905 -54.2492,18.1905 l -63.6134,22.8154 c -12.3869,2.2771 -48.6881,-1.3931 -73.0322,-2.0896 z"
       style="fill:none;stroke:#000000" />
    <path
       sodipodi:nodetypes="cszzsscc"
       inkscape:connector-curvature="0"
       id="path3877"
       d="m 2118.1635,1218.5364 c 4.0465,1.14 61.7736,-12.6523 65.6186,3.594 4.0632,17.1684 -1.3586,37.7023 1.6229,41.7308 2.9815,4.0285 23.8543,1.9611 31.0557,3.7644 7.2012,1.8034 34.9032,12.3232 39.5234,28.5577 3.4216,12.0231 1.5004,52.3693 -31.9866,61.4705 -33.4725,9.0972 -81.0998,-65.0451 -81.0998,-65.0451 z"
       style="fill:none;stroke:#000000" />
    <flowRoot
       xml:space="preserve"
       id="flowRoot4057"
       style="font-size:40px;font-style:normal;font-weight:normal;line-height:125%;letter-spacing:0px;word-spacing:0px;fill:#000000;fill-opacity:1;stroke:none;font-family:Sans"
       transform="matrix(5.8607076,0,0,5.8607076,-10604.323,-6102.3168)"><flowRegion
         id="flowRegion4059"><rect
           id="rect4061"
           width="233.54181"
           height="82.594055"
           x="2167.3818"
           y="1182.8763" /></flowRegion><flowPara
         id="flowPara4063">or</flowPara></flowRoot>  </g>
</svg>
